%TF.GenerationSoftware,KiCad,Pcbnew,7.0.10*%
%TF.CreationDate,2024-02-13T22:41:41+09:00*%
%TF.ProjectId,drv8833,64727638-3833-4332-9e6b-696361645f70,rev?*%
%TF.SameCoordinates,Original*%
%TF.FileFunction,Drillmap*%
%TF.FilePolarity,Positive*%
%FSLAX45Y45*%
G04 Gerber Fmt 4.5, Leading zero omitted, Abs format (unit mm)*
G04 Created by KiCad (PCBNEW 7.0.10) date 2024-02-13 22:41:41*
%MOMM*%
%LPD*%
G01*
G04 APERTURE LIST*
%ADD10C,0.100000*%
%ADD11C,0.200000*%
G04 APERTURE END LIST*
D10*
X9906000Y-5588000D02*
X13970000Y-5588000D01*
X9906000Y-7366000D02*
X9906000Y-5588000D01*
X9906000Y-7366000D02*
X13970000Y-7366000D01*
X13970000Y-7366000D02*
X13970000Y-5588000D01*
D11*
D10*
X11669000Y-6670000D02*
X11699000Y-6700000D01*
X11699000Y-6670000D02*
X11669000Y-6700000D01*
X11669000Y-6820000D02*
X11699000Y-6850000D01*
X11699000Y-6820000D02*
X11669000Y-6850000D01*
X11669000Y-6970000D02*
X11699000Y-7000000D01*
X11699000Y-6970000D02*
X11669000Y-7000000D01*
X11819000Y-6670000D02*
X11849000Y-6700000D01*
X11849000Y-6670000D02*
X11819000Y-6700000D01*
X11819000Y-6820000D02*
X11849000Y-6850000D01*
X11849000Y-6820000D02*
X11819000Y-6850000D01*
X11819000Y-6970000D02*
X11849000Y-7000000D01*
X11849000Y-6970000D02*
X11819000Y-7000000D01*
X10815000Y-6604000D02*
G75*
G03*
X10775000Y-6604000I-20000J0D01*
G01*
X10775000Y-6604000D02*
G75*
G03*
X10815000Y-6604000I20000J0D01*
G01*
X10815000Y-7112000D02*
G75*
G03*
X10775000Y-7112000I-20000J0D01*
G01*
X10775000Y-7112000D02*
G75*
G03*
X10815000Y-7112000I20000J0D01*
G01*
X11475400Y-6451600D02*
G75*
G03*
X11435400Y-6451600I-20000J0D01*
G01*
X11435400Y-6451600D02*
G75*
G03*
X11475400Y-6451600I20000J0D01*
G01*
X11500800Y-6045200D02*
G75*
G03*
X11460800Y-6045200I-20000J0D01*
G01*
X11460800Y-6045200D02*
G75*
G03*
X11500800Y-6045200I20000J0D01*
G01*
X12288200Y-6350000D02*
G75*
G03*
X12248200Y-6350000I-20000J0D01*
G01*
X12248200Y-6350000D02*
G75*
G03*
X12288200Y-6350000I20000J0D01*
G01*
X12288200Y-6832600D02*
G75*
G03*
X12248200Y-6832600I-20000J0D01*
G01*
X12248200Y-6832600D02*
G75*
G03*
X12288200Y-6832600I20000J0D01*
G01*
X12389800Y-6350000D02*
G75*
G03*
X12349800Y-6350000I-20000J0D01*
G01*
X12349800Y-6350000D02*
G75*
G03*
X12389800Y-6350000I20000J0D01*
G01*
X12389800Y-6832600D02*
G75*
G03*
X12349800Y-6832600I-20000J0D01*
G01*
X12349800Y-6832600D02*
G75*
G03*
X12389800Y-6832600I20000J0D01*
G01*
X12821600Y-5969000D02*
G75*
G03*
X12781600Y-5969000I-20000J0D01*
G01*
X12781600Y-5969000D02*
G75*
G03*
X12821600Y-5969000I20000J0D01*
G01*
X12821600Y-6629400D02*
G75*
G03*
X12781600Y-6629400I-20000J0D01*
G01*
X12781600Y-6629400D02*
G75*
G03*
X12821600Y-6629400I20000J0D01*
G01*
X13202600Y-6096000D02*
G75*
G03*
X13162600Y-6096000I-20000J0D01*
G01*
X13162600Y-6096000D02*
G75*
G03*
X13202600Y-6096000I20000J0D01*
G01*
X10185400Y-5817400D02*
X10185400Y-5917400D01*
X10135400Y-5867400D02*
X10235400Y-5867400D01*
X10185400Y-6071400D02*
X10185400Y-6171400D01*
X10135400Y-6121400D02*
X10235400Y-6121400D01*
X10185400Y-6782600D02*
X10185400Y-6882600D01*
X10135400Y-6832600D02*
X10235400Y-6832600D01*
X10185400Y-7036600D02*
X10185400Y-7136600D01*
X10135400Y-7086600D02*
X10235400Y-7086600D01*
X11501120Y-5692940D02*
X11501120Y-5792940D01*
X11451120Y-5742940D02*
X11551120Y-5742940D01*
X11755120Y-5692940D02*
X11755120Y-5792940D01*
X11705120Y-5742940D02*
X11805120Y-5742940D01*
X13462000Y-5792000D02*
X13462000Y-5892000D01*
X13412000Y-5842000D02*
X13512000Y-5842000D01*
X13462000Y-6046000D02*
X13462000Y-6146000D01*
X13412000Y-6096000D02*
X13512000Y-6096000D01*
X13462000Y-6300000D02*
X13462000Y-6400000D01*
X13412000Y-6350000D02*
X13512000Y-6350000D01*
X13462000Y-6554000D02*
X13462000Y-6654000D01*
X13412000Y-6604000D02*
X13512000Y-6604000D01*
X13462000Y-6808000D02*
X13462000Y-6908000D01*
X13412000Y-6858000D02*
X13512000Y-6858000D01*
X13462000Y-7062000D02*
X13462000Y-7162000D01*
X13412000Y-7112000D02*
X13512000Y-7112000D01*
X13716000Y-5792000D02*
X13716000Y-5892000D01*
X13666000Y-5842000D02*
X13766000Y-5842000D01*
X13716000Y-6046000D02*
X13716000Y-6146000D01*
X13666000Y-6096000D02*
X13766000Y-6096000D01*
X13716000Y-6300000D02*
X13716000Y-6400000D01*
X13666000Y-6350000D02*
X13766000Y-6350000D01*
X13716000Y-6554000D02*
X13716000Y-6654000D01*
X13666000Y-6604000D02*
X13766000Y-6604000D01*
X13716000Y-6808000D02*
X13716000Y-6908000D01*
X13666000Y-6858000D02*
X13766000Y-6858000D01*
X13716000Y-7062000D02*
X13716000Y-7162000D01*
X13666000Y-7112000D02*
X13766000Y-7112000D01*
D11*
X10161777Y-7682484D02*
X10161777Y-7482484D01*
X10161777Y-7482484D02*
X10209396Y-7482484D01*
X10209396Y-7482484D02*
X10237967Y-7492008D01*
X10237967Y-7492008D02*
X10257015Y-7511055D01*
X10257015Y-7511055D02*
X10266539Y-7530103D01*
X10266539Y-7530103D02*
X10276063Y-7568198D01*
X10276063Y-7568198D02*
X10276063Y-7596769D01*
X10276063Y-7596769D02*
X10266539Y-7634865D01*
X10266539Y-7634865D02*
X10257015Y-7653912D01*
X10257015Y-7653912D02*
X10237967Y-7672960D01*
X10237967Y-7672960D02*
X10209396Y-7682484D01*
X10209396Y-7682484D02*
X10161777Y-7682484D01*
X10361777Y-7682484D02*
X10361777Y-7549150D01*
X10361777Y-7587246D02*
X10371301Y-7568198D01*
X10371301Y-7568198D02*
X10380824Y-7558674D01*
X10380824Y-7558674D02*
X10399872Y-7549150D01*
X10399872Y-7549150D02*
X10418920Y-7549150D01*
X10485586Y-7682484D02*
X10485586Y-7549150D01*
X10485586Y-7482484D02*
X10476063Y-7492008D01*
X10476063Y-7492008D02*
X10485586Y-7501531D01*
X10485586Y-7501531D02*
X10495110Y-7492008D01*
X10495110Y-7492008D02*
X10485586Y-7482484D01*
X10485586Y-7482484D02*
X10485586Y-7501531D01*
X10609396Y-7682484D02*
X10590348Y-7672960D01*
X10590348Y-7672960D02*
X10580824Y-7653912D01*
X10580824Y-7653912D02*
X10580824Y-7482484D01*
X10714158Y-7682484D02*
X10695110Y-7672960D01*
X10695110Y-7672960D02*
X10685586Y-7653912D01*
X10685586Y-7653912D02*
X10685586Y-7482484D01*
X10942729Y-7682484D02*
X10942729Y-7482484D01*
X10942729Y-7482484D02*
X11009396Y-7625341D01*
X11009396Y-7625341D02*
X11076063Y-7482484D01*
X11076063Y-7482484D02*
X11076063Y-7682484D01*
X11257015Y-7682484D02*
X11257015Y-7577722D01*
X11257015Y-7577722D02*
X11247491Y-7558674D01*
X11247491Y-7558674D02*
X11228443Y-7549150D01*
X11228443Y-7549150D02*
X11190348Y-7549150D01*
X11190348Y-7549150D02*
X11171301Y-7558674D01*
X11257015Y-7672960D02*
X11237967Y-7682484D01*
X11237967Y-7682484D02*
X11190348Y-7682484D01*
X11190348Y-7682484D02*
X11171301Y-7672960D01*
X11171301Y-7672960D02*
X11161777Y-7653912D01*
X11161777Y-7653912D02*
X11161777Y-7634865D01*
X11161777Y-7634865D02*
X11171301Y-7615817D01*
X11171301Y-7615817D02*
X11190348Y-7606293D01*
X11190348Y-7606293D02*
X11237967Y-7606293D01*
X11237967Y-7606293D02*
X11257015Y-7596769D01*
X11352253Y-7549150D02*
X11352253Y-7749150D01*
X11352253Y-7558674D02*
X11371301Y-7549150D01*
X11371301Y-7549150D02*
X11409396Y-7549150D01*
X11409396Y-7549150D02*
X11428443Y-7558674D01*
X11428443Y-7558674D02*
X11437967Y-7568198D01*
X11437967Y-7568198D02*
X11447491Y-7587246D01*
X11447491Y-7587246D02*
X11447491Y-7644388D01*
X11447491Y-7644388D02*
X11437967Y-7663436D01*
X11437967Y-7663436D02*
X11428443Y-7672960D01*
X11428443Y-7672960D02*
X11409396Y-7682484D01*
X11409396Y-7682484D02*
X11371301Y-7682484D01*
X11371301Y-7682484D02*
X11352253Y-7672960D01*
X11533205Y-7663436D02*
X11542729Y-7672960D01*
X11542729Y-7672960D02*
X11533205Y-7682484D01*
X11533205Y-7682484D02*
X11523682Y-7672960D01*
X11523682Y-7672960D02*
X11533205Y-7663436D01*
X11533205Y-7663436D02*
X11533205Y-7682484D01*
X11533205Y-7558674D02*
X11542729Y-7568198D01*
X11542729Y-7568198D02*
X11533205Y-7577722D01*
X11533205Y-7577722D02*
X11523682Y-7568198D01*
X11523682Y-7568198D02*
X11533205Y-7558674D01*
X11533205Y-7558674D02*
X11533205Y-7577722D01*
D10*
X9871000Y-7996000D02*
X9901000Y-8026000D01*
X9901000Y-7996000D02*
X9871000Y-8026000D01*
D11*
X10199872Y-7902484D02*
X10218920Y-7902484D01*
X10218920Y-7902484D02*
X10237967Y-7912008D01*
X10237967Y-7912008D02*
X10247491Y-7921531D01*
X10247491Y-7921531D02*
X10257015Y-7940579D01*
X10257015Y-7940579D02*
X10266539Y-7978674D01*
X10266539Y-7978674D02*
X10266539Y-8026293D01*
X10266539Y-8026293D02*
X10257015Y-8064388D01*
X10257015Y-8064388D02*
X10247491Y-8083436D01*
X10247491Y-8083436D02*
X10237967Y-8092960D01*
X10237967Y-8092960D02*
X10218920Y-8102484D01*
X10218920Y-8102484D02*
X10199872Y-8102484D01*
X10199872Y-8102484D02*
X10180824Y-8092960D01*
X10180824Y-8092960D02*
X10171301Y-8083436D01*
X10171301Y-8083436D02*
X10161777Y-8064388D01*
X10161777Y-8064388D02*
X10152253Y-8026293D01*
X10152253Y-8026293D02*
X10152253Y-7978674D01*
X10152253Y-7978674D02*
X10161777Y-7940579D01*
X10161777Y-7940579D02*
X10171301Y-7921531D01*
X10171301Y-7921531D02*
X10180824Y-7912008D01*
X10180824Y-7912008D02*
X10199872Y-7902484D01*
X10352253Y-8083436D02*
X10361777Y-8092960D01*
X10361777Y-8092960D02*
X10352253Y-8102484D01*
X10352253Y-8102484D02*
X10342729Y-8092960D01*
X10342729Y-8092960D02*
X10352253Y-8083436D01*
X10352253Y-8083436D02*
X10352253Y-8102484D01*
X10428444Y-7902484D02*
X10552253Y-7902484D01*
X10552253Y-7902484D02*
X10485586Y-7978674D01*
X10485586Y-7978674D02*
X10514158Y-7978674D01*
X10514158Y-7978674D02*
X10533205Y-7988198D01*
X10533205Y-7988198D02*
X10542729Y-7997722D01*
X10542729Y-7997722D02*
X10552253Y-8016769D01*
X10552253Y-8016769D02*
X10552253Y-8064388D01*
X10552253Y-8064388D02*
X10542729Y-8083436D01*
X10542729Y-8083436D02*
X10533205Y-8092960D01*
X10533205Y-8092960D02*
X10514158Y-8102484D01*
X10514158Y-8102484D02*
X10457015Y-8102484D01*
X10457015Y-8102484D02*
X10437967Y-8092960D01*
X10437967Y-8092960D02*
X10428444Y-8083436D01*
X10676063Y-7902484D02*
X10695110Y-7902484D01*
X10695110Y-7902484D02*
X10714158Y-7912008D01*
X10714158Y-7912008D02*
X10723682Y-7921531D01*
X10723682Y-7921531D02*
X10733205Y-7940579D01*
X10733205Y-7940579D02*
X10742729Y-7978674D01*
X10742729Y-7978674D02*
X10742729Y-8026293D01*
X10742729Y-8026293D02*
X10733205Y-8064388D01*
X10733205Y-8064388D02*
X10723682Y-8083436D01*
X10723682Y-8083436D02*
X10714158Y-8092960D01*
X10714158Y-8092960D02*
X10695110Y-8102484D01*
X10695110Y-8102484D02*
X10676063Y-8102484D01*
X10676063Y-8102484D02*
X10657015Y-8092960D01*
X10657015Y-8092960D02*
X10647491Y-8083436D01*
X10647491Y-8083436D02*
X10637967Y-8064388D01*
X10637967Y-8064388D02*
X10628444Y-8026293D01*
X10628444Y-8026293D02*
X10628444Y-7978674D01*
X10628444Y-7978674D02*
X10637967Y-7940579D01*
X10637967Y-7940579D02*
X10647491Y-7921531D01*
X10647491Y-7921531D02*
X10657015Y-7912008D01*
X10657015Y-7912008D02*
X10676063Y-7902484D01*
X10866539Y-7902484D02*
X10885586Y-7902484D01*
X10885586Y-7902484D02*
X10904634Y-7912008D01*
X10904634Y-7912008D02*
X10914158Y-7921531D01*
X10914158Y-7921531D02*
X10923682Y-7940579D01*
X10923682Y-7940579D02*
X10933205Y-7978674D01*
X10933205Y-7978674D02*
X10933205Y-8026293D01*
X10933205Y-8026293D02*
X10923682Y-8064388D01*
X10923682Y-8064388D02*
X10914158Y-8083436D01*
X10914158Y-8083436D02*
X10904634Y-8092960D01*
X10904634Y-8092960D02*
X10885586Y-8102484D01*
X10885586Y-8102484D02*
X10866539Y-8102484D01*
X10866539Y-8102484D02*
X10847491Y-8092960D01*
X10847491Y-8092960D02*
X10837967Y-8083436D01*
X10837967Y-8083436D02*
X10828444Y-8064388D01*
X10828444Y-8064388D02*
X10818920Y-8026293D01*
X10818920Y-8026293D02*
X10818920Y-7978674D01*
X10818920Y-7978674D02*
X10828444Y-7940579D01*
X10828444Y-7940579D02*
X10837967Y-7921531D01*
X10837967Y-7921531D02*
X10847491Y-7912008D01*
X10847491Y-7912008D02*
X10866539Y-7902484D01*
X11018920Y-8102484D02*
X11018920Y-7969150D01*
X11018920Y-7988198D02*
X11028444Y-7978674D01*
X11028444Y-7978674D02*
X11047491Y-7969150D01*
X11047491Y-7969150D02*
X11076063Y-7969150D01*
X11076063Y-7969150D02*
X11095110Y-7978674D01*
X11095110Y-7978674D02*
X11104634Y-7997722D01*
X11104634Y-7997722D02*
X11104634Y-8102484D01*
X11104634Y-7997722D02*
X11114158Y-7978674D01*
X11114158Y-7978674D02*
X11133205Y-7969150D01*
X11133205Y-7969150D02*
X11161777Y-7969150D01*
X11161777Y-7969150D02*
X11180825Y-7978674D01*
X11180825Y-7978674D02*
X11190348Y-7997722D01*
X11190348Y-7997722D02*
X11190348Y-8102484D01*
X11285586Y-8102484D02*
X11285586Y-7969150D01*
X11285586Y-7988198D02*
X11295110Y-7978674D01*
X11295110Y-7978674D02*
X11314158Y-7969150D01*
X11314158Y-7969150D02*
X11342729Y-7969150D01*
X11342729Y-7969150D02*
X11361777Y-7978674D01*
X11361777Y-7978674D02*
X11371301Y-7997722D01*
X11371301Y-7997722D02*
X11371301Y-8102484D01*
X11371301Y-7997722D02*
X11380824Y-7978674D01*
X11380824Y-7978674D02*
X11399872Y-7969150D01*
X11399872Y-7969150D02*
X11428443Y-7969150D01*
X11428443Y-7969150D02*
X11447491Y-7978674D01*
X11447491Y-7978674D02*
X11457015Y-7997722D01*
X11457015Y-7997722D02*
X11457015Y-8102484D01*
X11847491Y-7892960D02*
X11676063Y-8150103D01*
X12104634Y-7902484D02*
X12123682Y-7902484D01*
X12123682Y-7902484D02*
X12142729Y-7912008D01*
X12142729Y-7912008D02*
X12152253Y-7921531D01*
X12152253Y-7921531D02*
X12161777Y-7940579D01*
X12161777Y-7940579D02*
X12171301Y-7978674D01*
X12171301Y-7978674D02*
X12171301Y-8026293D01*
X12171301Y-8026293D02*
X12161777Y-8064388D01*
X12161777Y-8064388D02*
X12152253Y-8083436D01*
X12152253Y-8083436D02*
X12142729Y-8092960D01*
X12142729Y-8092960D02*
X12123682Y-8102484D01*
X12123682Y-8102484D02*
X12104634Y-8102484D01*
X12104634Y-8102484D02*
X12085586Y-8092960D01*
X12085586Y-8092960D02*
X12076063Y-8083436D01*
X12076063Y-8083436D02*
X12066539Y-8064388D01*
X12066539Y-8064388D02*
X12057015Y-8026293D01*
X12057015Y-8026293D02*
X12057015Y-7978674D01*
X12057015Y-7978674D02*
X12066539Y-7940579D01*
X12066539Y-7940579D02*
X12076063Y-7921531D01*
X12076063Y-7921531D02*
X12085586Y-7912008D01*
X12085586Y-7912008D02*
X12104634Y-7902484D01*
X12257015Y-8083436D02*
X12266539Y-8092960D01*
X12266539Y-8092960D02*
X12257015Y-8102484D01*
X12257015Y-8102484D02*
X12247491Y-8092960D01*
X12247491Y-8092960D02*
X12257015Y-8083436D01*
X12257015Y-8083436D02*
X12257015Y-8102484D01*
X12390348Y-7902484D02*
X12409396Y-7902484D01*
X12409396Y-7902484D02*
X12428444Y-7912008D01*
X12428444Y-7912008D02*
X12437967Y-7921531D01*
X12437967Y-7921531D02*
X12447491Y-7940579D01*
X12447491Y-7940579D02*
X12457015Y-7978674D01*
X12457015Y-7978674D02*
X12457015Y-8026293D01*
X12457015Y-8026293D02*
X12447491Y-8064388D01*
X12447491Y-8064388D02*
X12437967Y-8083436D01*
X12437967Y-8083436D02*
X12428444Y-8092960D01*
X12428444Y-8092960D02*
X12409396Y-8102484D01*
X12409396Y-8102484D02*
X12390348Y-8102484D01*
X12390348Y-8102484D02*
X12371301Y-8092960D01*
X12371301Y-8092960D02*
X12361777Y-8083436D01*
X12361777Y-8083436D02*
X12352253Y-8064388D01*
X12352253Y-8064388D02*
X12342729Y-8026293D01*
X12342729Y-8026293D02*
X12342729Y-7978674D01*
X12342729Y-7978674D02*
X12352253Y-7940579D01*
X12352253Y-7940579D02*
X12361777Y-7921531D01*
X12361777Y-7921531D02*
X12371301Y-7912008D01*
X12371301Y-7912008D02*
X12390348Y-7902484D01*
X12647491Y-8102484D02*
X12533206Y-8102484D01*
X12590348Y-8102484D02*
X12590348Y-7902484D01*
X12590348Y-7902484D02*
X12571301Y-7931055D01*
X12571301Y-7931055D02*
X12552253Y-7950103D01*
X12552253Y-7950103D02*
X12533206Y-7959627D01*
X12837967Y-8102484D02*
X12723682Y-8102484D01*
X12780825Y-8102484D02*
X12780825Y-7902484D01*
X12780825Y-7902484D02*
X12761777Y-7931055D01*
X12761777Y-7931055D02*
X12742729Y-7950103D01*
X12742729Y-7950103D02*
X12723682Y-7959627D01*
X12952253Y-7988198D02*
X12933206Y-7978674D01*
X12933206Y-7978674D02*
X12923682Y-7969150D01*
X12923682Y-7969150D02*
X12914158Y-7950103D01*
X12914158Y-7950103D02*
X12914158Y-7940579D01*
X12914158Y-7940579D02*
X12923682Y-7921531D01*
X12923682Y-7921531D02*
X12933206Y-7912008D01*
X12933206Y-7912008D02*
X12952253Y-7902484D01*
X12952253Y-7902484D02*
X12990348Y-7902484D01*
X12990348Y-7902484D02*
X13009396Y-7912008D01*
X13009396Y-7912008D02*
X13018920Y-7921531D01*
X13018920Y-7921531D02*
X13028444Y-7940579D01*
X13028444Y-7940579D02*
X13028444Y-7950103D01*
X13028444Y-7950103D02*
X13018920Y-7969150D01*
X13018920Y-7969150D02*
X13009396Y-7978674D01*
X13009396Y-7978674D02*
X12990348Y-7988198D01*
X12990348Y-7988198D02*
X12952253Y-7988198D01*
X12952253Y-7988198D02*
X12933206Y-7997722D01*
X12933206Y-7997722D02*
X12923682Y-8007246D01*
X12923682Y-8007246D02*
X12914158Y-8026293D01*
X12914158Y-8026293D02*
X12914158Y-8064388D01*
X12914158Y-8064388D02*
X12923682Y-8083436D01*
X12923682Y-8083436D02*
X12933206Y-8092960D01*
X12933206Y-8092960D02*
X12952253Y-8102484D01*
X12952253Y-8102484D02*
X12990348Y-8102484D01*
X12990348Y-8102484D02*
X13009396Y-8092960D01*
X13009396Y-8092960D02*
X13018920Y-8083436D01*
X13018920Y-8083436D02*
X13028444Y-8064388D01*
X13028444Y-8064388D02*
X13028444Y-8026293D01*
X13028444Y-8026293D02*
X13018920Y-8007246D01*
X13018920Y-8007246D02*
X13009396Y-7997722D01*
X13009396Y-7997722D02*
X12990348Y-7988198D01*
X13104634Y-7902484D02*
X13104634Y-7940579D01*
X13180825Y-7902484D02*
X13180825Y-7940579D01*
X13476063Y-8178674D02*
X13466539Y-8169150D01*
X13466539Y-8169150D02*
X13447491Y-8140579D01*
X13447491Y-8140579D02*
X13437968Y-8121531D01*
X13437968Y-8121531D02*
X13428444Y-8092960D01*
X13428444Y-8092960D02*
X13418920Y-8045341D01*
X13418920Y-8045341D02*
X13418920Y-8007246D01*
X13418920Y-8007246D02*
X13428444Y-7959627D01*
X13428444Y-7959627D02*
X13437968Y-7931055D01*
X13437968Y-7931055D02*
X13447491Y-7912008D01*
X13447491Y-7912008D02*
X13466539Y-7883436D01*
X13466539Y-7883436D02*
X13476063Y-7873912D01*
X13637968Y-7902484D02*
X13599872Y-7902484D01*
X13599872Y-7902484D02*
X13580825Y-7912008D01*
X13580825Y-7912008D02*
X13571301Y-7921531D01*
X13571301Y-7921531D02*
X13552253Y-7950103D01*
X13552253Y-7950103D02*
X13542729Y-7988198D01*
X13542729Y-7988198D02*
X13542729Y-8064388D01*
X13542729Y-8064388D02*
X13552253Y-8083436D01*
X13552253Y-8083436D02*
X13561777Y-8092960D01*
X13561777Y-8092960D02*
X13580825Y-8102484D01*
X13580825Y-8102484D02*
X13618920Y-8102484D01*
X13618920Y-8102484D02*
X13637968Y-8092960D01*
X13637968Y-8092960D02*
X13647491Y-8083436D01*
X13647491Y-8083436D02*
X13657015Y-8064388D01*
X13657015Y-8064388D02*
X13657015Y-8016769D01*
X13657015Y-8016769D02*
X13647491Y-7997722D01*
X13647491Y-7997722D02*
X13637968Y-7988198D01*
X13637968Y-7988198D02*
X13618920Y-7978674D01*
X13618920Y-7978674D02*
X13580825Y-7978674D01*
X13580825Y-7978674D02*
X13561777Y-7988198D01*
X13561777Y-7988198D02*
X13552253Y-7997722D01*
X13552253Y-7997722D02*
X13542729Y-8016769D01*
X13895110Y-8102484D02*
X13895110Y-7902484D01*
X13980825Y-8102484D02*
X13980825Y-7997722D01*
X13980825Y-7997722D02*
X13971301Y-7978674D01*
X13971301Y-7978674D02*
X13952253Y-7969150D01*
X13952253Y-7969150D02*
X13923682Y-7969150D01*
X13923682Y-7969150D02*
X13904634Y-7978674D01*
X13904634Y-7978674D02*
X13895110Y-7988198D01*
X14104634Y-8102484D02*
X14085587Y-8092960D01*
X14085587Y-8092960D02*
X14076063Y-8083436D01*
X14076063Y-8083436D02*
X14066539Y-8064388D01*
X14066539Y-8064388D02*
X14066539Y-8007246D01*
X14066539Y-8007246D02*
X14076063Y-7988198D01*
X14076063Y-7988198D02*
X14085587Y-7978674D01*
X14085587Y-7978674D02*
X14104634Y-7969150D01*
X14104634Y-7969150D02*
X14133206Y-7969150D01*
X14133206Y-7969150D02*
X14152253Y-7978674D01*
X14152253Y-7978674D02*
X14161777Y-7988198D01*
X14161777Y-7988198D02*
X14171301Y-8007246D01*
X14171301Y-8007246D02*
X14171301Y-8064388D01*
X14171301Y-8064388D02*
X14161777Y-8083436D01*
X14161777Y-8083436D02*
X14152253Y-8092960D01*
X14152253Y-8092960D02*
X14133206Y-8102484D01*
X14133206Y-8102484D02*
X14104634Y-8102484D01*
X14285587Y-8102484D02*
X14266539Y-8092960D01*
X14266539Y-8092960D02*
X14257015Y-8073912D01*
X14257015Y-8073912D02*
X14257015Y-7902484D01*
X14437968Y-8092960D02*
X14418920Y-8102484D01*
X14418920Y-8102484D02*
X14380825Y-8102484D01*
X14380825Y-8102484D02*
X14361777Y-8092960D01*
X14361777Y-8092960D02*
X14352253Y-8073912D01*
X14352253Y-8073912D02*
X14352253Y-7997722D01*
X14352253Y-7997722D02*
X14361777Y-7978674D01*
X14361777Y-7978674D02*
X14380825Y-7969150D01*
X14380825Y-7969150D02*
X14418920Y-7969150D01*
X14418920Y-7969150D02*
X14437968Y-7978674D01*
X14437968Y-7978674D02*
X14447491Y-7997722D01*
X14447491Y-7997722D02*
X14447491Y-8016769D01*
X14447491Y-8016769D02*
X14352253Y-8035817D01*
X14523682Y-8092960D02*
X14542730Y-8102484D01*
X14542730Y-8102484D02*
X14580825Y-8102484D01*
X14580825Y-8102484D02*
X14599872Y-8092960D01*
X14599872Y-8092960D02*
X14609396Y-8073912D01*
X14609396Y-8073912D02*
X14609396Y-8064388D01*
X14609396Y-8064388D02*
X14599872Y-8045341D01*
X14599872Y-8045341D02*
X14580825Y-8035817D01*
X14580825Y-8035817D02*
X14552253Y-8035817D01*
X14552253Y-8035817D02*
X14533206Y-8026293D01*
X14533206Y-8026293D02*
X14523682Y-8007246D01*
X14523682Y-8007246D02*
X14523682Y-7997722D01*
X14523682Y-7997722D02*
X14533206Y-7978674D01*
X14533206Y-7978674D02*
X14552253Y-7969150D01*
X14552253Y-7969150D02*
X14580825Y-7969150D01*
X14580825Y-7969150D02*
X14599872Y-7978674D01*
X14676063Y-8178674D02*
X14685587Y-8169150D01*
X14685587Y-8169150D02*
X14704634Y-8140579D01*
X14704634Y-8140579D02*
X14714158Y-8121531D01*
X14714158Y-8121531D02*
X14723682Y-8092960D01*
X14723682Y-8092960D02*
X14733206Y-8045341D01*
X14733206Y-8045341D02*
X14733206Y-8007246D01*
X14733206Y-8007246D02*
X14723682Y-7959627D01*
X14723682Y-7959627D02*
X14714158Y-7931055D01*
X14714158Y-7931055D02*
X14704634Y-7912008D01*
X14704634Y-7912008D02*
X14685587Y-7883436D01*
X14685587Y-7883436D02*
X14676063Y-7873912D01*
D10*
X9901000Y-8275000D02*
G75*
G03*
X9861000Y-8275000I-20000J0D01*
G01*
X9861000Y-8275000D02*
G75*
G03*
X9901000Y-8275000I20000J0D01*
G01*
D11*
X10199872Y-8166484D02*
X10218920Y-8166484D01*
X10218920Y-8166484D02*
X10237967Y-8176008D01*
X10237967Y-8176008D02*
X10247491Y-8185531D01*
X10247491Y-8185531D02*
X10257015Y-8204579D01*
X10257015Y-8204579D02*
X10266539Y-8242674D01*
X10266539Y-8242674D02*
X10266539Y-8290293D01*
X10266539Y-8290293D02*
X10257015Y-8328388D01*
X10257015Y-8328388D02*
X10247491Y-8347436D01*
X10247491Y-8347436D02*
X10237967Y-8356960D01*
X10237967Y-8356960D02*
X10218920Y-8366484D01*
X10218920Y-8366484D02*
X10199872Y-8366484D01*
X10199872Y-8366484D02*
X10180824Y-8356960D01*
X10180824Y-8356960D02*
X10171301Y-8347436D01*
X10171301Y-8347436D02*
X10161777Y-8328388D01*
X10161777Y-8328388D02*
X10152253Y-8290293D01*
X10152253Y-8290293D02*
X10152253Y-8242674D01*
X10152253Y-8242674D02*
X10161777Y-8204579D01*
X10161777Y-8204579D02*
X10171301Y-8185531D01*
X10171301Y-8185531D02*
X10180824Y-8176008D01*
X10180824Y-8176008D02*
X10199872Y-8166484D01*
X10352253Y-8347436D02*
X10361777Y-8356960D01*
X10361777Y-8356960D02*
X10352253Y-8366484D01*
X10352253Y-8366484D02*
X10342729Y-8356960D01*
X10342729Y-8356960D02*
X10352253Y-8347436D01*
X10352253Y-8347436D02*
X10352253Y-8366484D01*
X10533205Y-8233150D02*
X10533205Y-8366484D01*
X10485586Y-8156960D02*
X10437967Y-8299817D01*
X10437967Y-8299817D02*
X10561777Y-8299817D01*
X10676063Y-8166484D02*
X10695110Y-8166484D01*
X10695110Y-8166484D02*
X10714158Y-8176008D01*
X10714158Y-8176008D02*
X10723682Y-8185531D01*
X10723682Y-8185531D02*
X10733205Y-8204579D01*
X10733205Y-8204579D02*
X10742729Y-8242674D01*
X10742729Y-8242674D02*
X10742729Y-8290293D01*
X10742729Y-8290293D02*
X10733205Y-8328388D01*
X10733205Y-8328388D02*
X10723682Y-8347436D01*
X10723682Y-8347436D02*
X10714158Y-8356960D01*
X10714158Y-8356960D02*
X10695110Y-8366484D01*
X10695110Y-8366484D02*
X10676063Y-8366484D01*
X10676063Y-8366484D02*
X10657015Y-8356960D01*
X10657015Y-8356960D02*
X10647491Y-8347436D01*
X10647491Y-8347436D02*
X10637967Y-8328388D01*
X10637967Y-8328388D02*
X10628444Y-8290293D01*
X10628444Y-8290293D02*
X10628444Y-8242674D01*
X10628444Y-8242674D02*
X10637967Y-8204579D01*
X10637967Y-8204579D02*
X10647491Y-8185531D01*
X10647491Y-8185531D02*
X10657015Y-8176008D01*
X10657015Y-8176008D02*
X10676063Y-8166484D01*
X10866539Y-8166484D02*
X10885586Y-8166484D01*
X10885586Y-8166484D02*
X10904634Y-8176008D01*
X10904634Y-8176008D02*
X10914158Y-8185531D01*
X10914158Y-8185531D02*
X10923682Y-8204579D01*
X10923682Y-8204579D02*
X10933205Y-8242674D01*
X10933205Y-8242674D02*
X10933205Y-8290293D01*
X10933205Y-8290293D02*
X10923682Y-8328388D01*
X10923682Y-8328388D02*
X10914158Y-8347436D01*
X10914158Y-8347436D02*
X10904634Y-8356960D01*
X10904634Y-8356960D02*
X10885586Y-8366484D01*
X10885586Y-8366484D02*
X10866539Y-8366484D01*
X10866539Y-8366484D02*
X10847491Y-8356960D01*
X10847491Y-8356960D02*
X10837967Y-8347436D01*
X10837967Y-8347436D02*
X10828444Y-8328388D01*
X10828444Y-8328388D02*
X10818920Y-8290293D01*
X10818920Y-8290293D02*
X10818920Y-8242674D01*
X10818920Y-8242674D02*
X10828444Y-8204579D01*
X10828444Y-8204579D02*
X10837967Y-8185531D01*
X10837967Y-8185531D02*
X10847491Y-8176008D01*
X10847491Y-8176008D02*
X10866539Y-8166484D01*
X11018920Y-8366484D02*
X11018920Y-8233150D01*
X11018920Y-8252198D02*
X11028444Y-8242674D01*
X11028444Y-8242674D02*
X11047491Y-8233150D01*
X11047491Y-8233150D02*
X11076063Y-8233150D01*
X11076063Y-8233150D02*
X11095110Y-8242674D01*
X11095110Y-8242674D02*
X11104634Y-8261722D01*
X11104634Y-8261722D02*
X11104634Y-8366484D01*
X11104634Y-8261722D02*
X11114158Y-8242674D01*
X11114158Y-8242674D02*
X11133205Y-8233150D01*
X11133205Y-8233150D02*
X11161777Y-8233150D01*
X11161777Y-8233150D02*
X11180825Y-8242674D01*
X11180825Y-8242674D02*
X11190348Y-8261722D01*
X11190348Y-8261722D02*
X11190348Y-8366484D01*
X11285586Y-8366484D02*
X11285586Y-8233150D01*
X11285586Y-8252198D02*
X11295110Y-8242674D01*
X11295110Y-8242674D02*
X11314158Y-8233150D01*
X11314158Y-8233150D02*
X11342729Y-8233150D01*
X11342729Y-8233150D02*
X11361777Y-8242674D01*
X11361777Y-8242674D02*
X11371301Y-8261722D01*
X11371301Y-8261722D02*
X11371301Y-8366484D01*
X11371301Y-8261722D02*
X11380824Y-8242674D01*
X11380824Y-8242674D02*
X11399872Y-8233150D01*
X11399872Y-8233150D02*
X11428443Y-8233150D01*
X11428443Y-8233150D02*
X11447491Y-8242674D01*
X11447491Y-8242674D02*
X11457015Y-8261722D01*
X11457015Y-8261722D02*
X11457015Y-8366484D01*
X11847491Y-8156960D02*
X11676063Y-8414103D01*
X12104634Y-8166484D02*
X12123682Y-8166484D01*
X12123682Y-8166484D02*
X12142729Y-8176008D01*
X12142729Y-8176008D02*
X12152253Y-8185531D01*
X12152253Y-8185531D02*
X12161777Y-8204579D01*
X12161777Y-8204579D02*
X12171301Y-8242674D01*
X12171301Y-8242674D02*
X12171301Y-8290293D01*
X12171301Y-8290293D02*
X12161777Y-8328388D01*
X12161777Y-8328388D02*
X12152253Y-8347436D01*
X12152253Y-8347436D02*
X12142729Y-8356960D01*
X12142729Y-8356960D02*
X12123682Y-8366484D01*
X12123682Y-8366484D02*
X12104634Y-8366484D01*
X12104634Y-8366484D02*
X12085586Y-8356960D01*
X12085586Y-8356960D02*
X12076063Y-8347436D01*
X12076063Y-8347436D02*
X12066539Y-8328388D01*
X12066539Y-8328388D02*
X12057015Y-8290293D01*
X12057015Y-8290293D02*
X12057015Y-8242674D01*
X12057015Y-8242674D02*
X12066539Y-8204579D01*
X12066539Y-8204579D02*
X12076063Y-8185531D01*
X12076063Y-8185531D02*
X12085586Y-8176008D01*
X12085586Y-8176008D02*
X12104634Y-8166484D01*
X12257015Y-8347436D02*
X12266539Y-8356960D01*
X12266539Y-8356960D02*
X12257015Y-8366484D01*
X12257015Y-8366484D02*
X12247491Y-8356960D01*
X12247491Y-8356960D02*
X12257015Y-8347436D01*
X12257015Y-8347436D02*
X12257015Y-8366484D01*
X12390348Y-8166484D02*
X12409396Y-8166484D01*
X12409396Y-8166484D02*
X12428444Y-8176008D01*
X12428444Y-8176008D02*
X12437967Y-8185531D01*
X12437967Y-8185531D02*
X12447491Y-8204579D01*
X12447491Y-8204579D02*
X12457015Y-8242674D01*
X12457015Y-8242674D02*
X12457015Y-8290293D01*
X12457015Y-8290293D02*
X12447491Y-8328388D01*
X12447491Y-8328388D02*
X12437967Y-8347436D01*
X12437967Y-8347436D02*
X12428444Y-8356960D01*
X12428444Y-8356960D02*
X12409396Y-8366484D01*
X12409396Y-8366484D02*
X12390348Y-8366484D01*
X12390348Y-8366484D02*
X12371301Y-8356960D01*
X12371301Y-8356960D02*
X12361777Y-8347436D01*
X12361777Y-8347436D02*
X12352253Y-8328388D01*
X12352253Y-8328388D02*
X12342729Y-8290293D01*
X12342729Y-8290293D02*
X12342729Y-8242674D01*
X12342729Y-8242674D02*
X12352253Y-8204579D01*
X12352253Y-8204579D02*
X12361777Y-8185531D01*
X12361777Y-8185531D02*
X12371301Y-8176008D01*
X12371301Y-8176008D02*
X12390348Y-8166484D01*
X12647491Y-8366484D02*
X12533206Y-8366484D01*
X12590348Y-8366484D02*
X12590348Y-8166484D01*
X12590348Y-8166484D02*
X12571301Y-8195055D01*
X12571301Y-8195055D02*
X12552253Y-8214103D01*
X12552253Y-8214103D02*
X12533206Y-8223627D01*
X12828444Y-8166484D02*
X12733206Y-8166484D01*
X12733206Y-8166484D02*
X12723682Y-8261722D01*
X12723682Y-8261722D02*
X12733206Y-8252198D01*
X12733206Y-8252198D02*
X12752253Y-8242674D01*
X12752253Y-8242674D02*
X12799872Y-8242674D01*
X12799872Y-8242674D02*
X12818920Y-8252198D01*
X12818920Y-8252198D02*
X12828444Y-8261722D01*
X12828444Y-8261722D02*
X12837967Y-8280769D01*
X12837967Y-8280769D02*
X12837967Y-8328388D01*
X12837967Y-8328388D02*
X12828444Y-8347436D01*
X12828444Y-8347436D02*
X12818920Y-8356960D01*
X12818920Y-8356960D02*
X12799872Y-8366484D01*
X12799872Y-8366484D02*
X12752253Y-8366484D01*
X12752253Y-8366484D02*
X12733206Y-8356960D01*
X12733206Y-8356960D02*
X12723682Y-8347436D01*
X12904634Y-8166484D02*
X13037967Y-8166484D01*
X13037967Y-8166484D02*
X12952253Y-8366484D01*
X13104634Y-8166484D02*
X13104634Y-8204579D01*
X13180825Y-8166484D02*
X13180825Y-8204579D01*
X13476063Y-8442674D02*
X13466539Y-8433150D01*
X13466539Y-8433150D02*
X13447491Y-8404579D01*
X13447491Y-8404579D02*
X13437968Y-8385531D01*
X13437968Y-8385531D02*
X13428444Y-8356960D01*
X13428444Y-8356960D02*
X13418920Y-8309341D01*
X13418920Y-8309341D02*
X13418920Y-8271246D01*
X13418920Y-8271246D02*
X13428444Y-8223627D01*
X13428444Y-8223627D02*
X13437968Y-8195055D01*
X13437968Y-8195055D02*
X13447491Y-8176008D01*
X13447491Y-8176008D02*
X13466539Y-8147436D01*
X13466539Y-8147436D02*
X13476063Y-8137912D01*
X13657015Y-8366484D02*
X13542729Y-8366484D01*
X13599872Y-8366484D02*
X13599872Y-8166484D01*
X13599872Y-8166484D02*
X13580825Y-8195055D01*
X13580825Y-8195055D02*
X13561777Y-8214103D01*
X13561777Y-8214103D02*
X13542729Y-8223627D01*
X13847491Y-8366484D02*
X13733206Y-8366484D01*
X13790348Y-8366484D02*
X13790348Y-8166484D01*
X13790348Y-8166484D02*
X13771301Y-8195055D01*
X13771301Y-8195055D02*
X13752253Y-8214103D01*
X13752253Y-8214103D02*
X13733206Y-8223627D01*
X14085587Y-8366484D02*
X14085587Y-8166484D01*
X14171301Y-8366484D02*
X14171301Y-8261722D01*
X14171301Y-8261722D02*
X14161777Y-8242674D01*
X14161777Y-8242674D02*
X14142730Y-8233150D01*
X14142730Y-8233150D02*
X14114158Y-8233150D01*
X14114158Y-8233150D02*
X14095110Y-8242674D01*
X14095110Y-8242674D02*
X14085587Y-8252198D01*
X14295110Y-8366484D02*
X14276063Y-8356960D01*
X14276063Y-8356960D02*
X14266539Y-8347436D01*
X14266539Y-8347436D02*
X14257015Y-8328388D01*
X14257015Y-8328388D02*
X14257015Y-8271246D01*
X14257015Y-8271246D02*
X14266539Y-8252198D01*
X14266539Y-8252198D02*
X14276063Y-8242674D01*
X14276063Y-8242674D02*
X14295110Y-8233150D01*
X14295110Y-8233150D02*
X14323682Y-8233150D01*
X14323682Y-8233150D02*
X14342730Y-8242674D01*
X14342730Y-8242674D02*
X14352253Y-8252198D01*
X14352253Y-8252198D02*
X14361777Y-8271246D01*
X14361777Y-8271246D02*
X14361777Y-8328388D01*
X14361777Y-8328388D02*
X14352253Y-8347436D01*
X14352253Y-8347436D02*
X14342730Y-8356960D01*
X14342730Y-8356960D02*
X14323682Y-8366484D01*
X14323682Y-8366484D02*
X14295110Y-8366484D01*
X14476063Y-8366484D02*
X14457015Y-8356960D01*
X14457015Y-8356960D02*
X14447491Y-8337912D01*
X14447491Y-8337912D02*
X14447491Y-8166484D01*
X14628444Y-8356960D02*
X14609396Y-8366484D01*
X14609396Y-8366484D02*
X14571301Y-8366484D01*
X14571301Y-8366484D02*
X14552253Y-8356960D01*
X14552253Y-8356960D02*
X14542730Y-8337912D01*
X14542730Y-8337912D02*
X14542730Y-8261722D01*
X14542730Y-8261722D02*
X14552253Y-8242674D01*
X14552253Y-8242674D02*
X14571301Y-8233150D01*
X14571301Y-8233150D02*
X14609396Y-8233150D01*
X14609396Y-8233150D02*
X14628444Y-8242674D01*
X14628444Y-8242674D02*
X14637968Y-8261722D01*
X14637968Y-8261722D02*
X14637968Y-8280769D01*
X14637968Y-8280769D02*
X14542730Y-8299817D01*
X14714158Y-8356960D02*
X14733206Y-8366484D01*
X14733206Y-8366484D02*
X14771301Y-8366484D01*
X14771301Y-8366484D02*
X14790349Y-8356960D01*
X14790349Y-8356960D02*
X14799872Y-8337912D01*
X14799872Y-8337912D02*
X14799872Y-8328388D01*
X14799872Y-8328388D02*
X14790349Y-8309341D01*
X14790349Y-8309341D02*
X14771301Y-8299817D01*
X14771301Y-8299817D02*
X14742730Y-8299817D01*
X14742730Y-8299817D02*
X14723682Y-8290293D01*
X14723682Y-8290293D02*
X14714158Y-8271246D01*
X14714158Y-8271246D02*
X14714158Y-8261722D01*
X14714158Y-8261722D02*
X14723682Y-8242674D01*
X14723682Y-8242674D02*
X14742730Y-8233150D01*
X14742730Y-8233150D02*
X14771301Y-8233150D01*
X14771301Y-8233150D02*
X14790349Y-8242674D01*
X14866539Y-8442674D02*
X14876063Y-8433150D01*
X14876063Y-8433150D02*
X14895111Y-8404579D01*
X14895111Y-8404579D02*
X14904634Y-8385531D01*
X14904634Y-8385531D02*
X14914158Y-8356960D01*
X14914158Y-8356960D02*
X14923682Y-8309341D01*
X14923682Y-8309341D02*
X14923682Y-8271246D01*
X14923682Y-8271246D02*
X14914158Y-8223627D01*
X14914158Y-8223627D02*
X14904634Y-8195055D01*
X14904634Y-8195055D02*
X14895111Y-8176008D01*
X14895111Y-8176008D02*
X14876063Y-8147436D01*
X14876063Y-8147436D02*
X14866539Y-8137912D01*
D10*
X9851000Y-8489000D02*
X9851000Y-8589000D01*
X9801000Y-8539000D02*
X9901000Y-8539000D01*
D11*
X10266539Y-8630484D02*
X10152253Y-8630484D01*
X10209396Y-8630484D02*
X10209396Y-8430484D01*
X10209396Y-8430484D02*
X10190348Y-8459055D01*
X10190348Y-8459055D02*
X10171301Y-8478103D01*
X10171301Y-8478103D02*
X10152253Y-8487627D01*
X10352253Y-8611436D02*
X10361777Y-8620960D01*
X10361777Y-8620960D02*
X10352253Y-8630484D01*
X10352253Y-8630484D02*
X10342729Y-8620960D01*
X10342729Y-8620960D02*
X10352253Y-8611436D01*
X10352253Y-8611436D02*
X10352253Y-8630484D01*
X10485586Y-8430484D02*
X10504634Y-8430484D01*
X10504634Y-8430484D02*
X10523682Y-8440008D01*
X10523682Y-8440008D02*
X10533205Y-8449531D01*
X10533205Y-8449531D02*
X10542729Y-8468579D01*
X10542729Y-8468579D02*
X10552253Y-8506674D01*
X10552253Y-8506674D02*
X10552253Y-8554293D01*
X10552253Y-8554293D02*
X10542729Y-8592389D01*
X10542729Y-8592389D02*
X10533205Y-8611436D01*
X10533205Y-8611436D02*
X10523682Y-8620960D01*
X10523682Y-8620960D02*
X10504634Y-8630484D01*
X10504634Y-8630484D02*
X10485586Y-8630484D01*
X10485586Y-8630484D02*
X10466539Y-8620960D01*
X10466539Y-8620960D02*
X10457015Y-8611436D01*
X10457015Y-8611436D02*
X10447491Y-8592389D01*
X10447491Y-8592389D02*
X10437967Y-8554293D01*
X10437967Y-8554293D02*
X10437967Y-8506674D01*
X10437967Y-8506674D02*
X10447491Y-8468579D01*
X10447491Y-8468579D02*
X10457015Y-8449531D01*
X10457015Y-8449531D02*
X10466539Y-8440008D01*
X10466539Y-8440008D02*
X10485586Y-8430484D01*
X10676063Y-8430484D02*
X10695110Y-8430484D01*
X10695110Y-8430484D02*
X10714158Y-8440008D01*
X10714158Y-8440008D02*
X10723682Y-8449531D01*
X10723682Y-8449531D02*
X10733205Y-8468579D01*
X10733205Y-8468579D02*
X10742729Y-8506674D01*
X10742729Y-8506674D02*
X10742729Y-8554293D01*
X10742729Y-8554293D02*
X10733205Y-8592389D01*
X10733205Y-8592389D02*
X10723682Y-8611436D01*
X10723682Y-8611436D02*
X10714158Y-8620960D01*
X10714158Y-8620960D02*
X10695110Y-8630484D01*
X10695110Y-8630484D02*
X10676063Y-8630484D01*
X10676063Y-8630484D02*
X10657015Y-8620960D01*
X10657015Y-8620960D02*
X10647491Y-8611436D01*
X10647491Y-8611436D02*
X10637967Y-8592389D01*
X10637967Y-8592389D02*
X10628444Y-8554293D01*
X10628444Y-8554293D02*
X10628444Y-8506674D01*
X10628444Y-8506674D02*
X10637967Y-8468579D01*
X10637967Y-8468579D02*
X10647491Y-8449531D01*
X10647491Y-8449531D02*
X10657015Y-8440008D01*
X10657015Y-8440008D02*
X10676063Y-8430484D01*
X10866539Y-8430484D02*
X10885586Y-8430484D01*
X10885586Y-8430484D02*
X10904634Y-8440008D01*
X10904634Y-8440008D02*
X10914158Y-8449531D01*
X10914158Y-8449531D02*
X10923682Y-8468579D01*
X10923682Y-8468579D02*
X10933205Y-8506674D01*
X10933205Y-8506674D02*
X10933205Y-8554293D01*
X10933205Y-8554293D02*
X10923682Y-8592389D01*
X10923682Y-8592389D02*
X10914158Y-8611436D01*
X10914158Y-8611436D02*
X10904634Y-8620960D01*
X10904634Y-8620960D02*
X10885586Y-8630484D01*
X10885586Y-8630484D02*
X10866539Y-8630484D01*
X10866539Y-8630484D02*
X10847491Y-8620960D01*
X10847491Y-8620960D02*
X10837967Y-8611436D01*
X10837967Y-8611436D02*
X10828444Y-8592389D01*
X10828444Y-8592389D02*
X10818920Y-8554293D01*
X10818920Y-8554293D02*
X10818920Y-8506674D01*
X10818920Y-8506674D02*
X10828444Y-8468579D01*
X10828444Y-8468579D02*
X10837967Y-8449531D01*
X10837967Y-8449531D02*
X10847491Y-8440008D01*
X10847491Y-8440008D02*
X10866539Y-8430484D01*
X11018920Y-8630484D02*
X11018920Y-8497150D01*
X11018920Y-8516198D02*
X11028444Y-8506674D01*
X11028444Y-8506674D02*
X11047491Y-8497150D01*
X11047491Y-8497150D02*
X11076063Y-8497150D01*
X11076063Y-8497150D02*
X11095110Y-8506674D01*
X11095110Y-8506674D02*
X11104634Y-8525722D01*
X11104634Y-8525722D02*
X11104634Y-8630484D01*
X11104634Y-8525722D02*
X11114158Y-8506674D01*
X11114158Y-8506674D02*
X11133205Y-8497150D01*
X11133205Y-8497150D02*
X11161777Y-8497150D01*
X11161777Y-8497150D02*
X11180825Y-8506674D01*
X11180825Y-8506674D02*
X11190348Y-8525722D01*
X11190348Y-8525722D02*
X11190348Y-8630484D01*
X11285586Y-8630484D02*
X11285586Y-8497150D01*
X11285586Y-8516198D02*
X11295110Y-8506674D01*
X11295110Y-8506674D02*
X11314158Y-8497150D01*
X11314158Y-8497150D02*
X11342729Y-8497150D01*
X11342729Y-8497150D02*
X11361777Y-8506674D01*
X11361777Y-8506674D02*
X11371301Y-8525722D01*
X11371301Y-8525722D02*
X11371301Y-8630484D01*
X11371301Y-8525722D02*
X11380824Y-8506674D01*
X11380824Y-8506674D02*
X11399872Y-8497150D01*
X11399872Y-8497150D02*
X11428443Y-8497150D01*
X11428443Y-8497150D02*
X11447491Y-8506674D01*
X11447491Y-8506674D02*
X11457015Y-8525722D01*
X11457015Y-8525722D02*
X11457015Y-8630484D01*
X11847491Y-8420960D02*
X11676063Y-8678103D01*
X12104634Y-8430484D02*
X12123682Y-8430484D01*
X12123682Y-8430484D02*
X12142729Y-8440008D01*
X12142729Y-8440008D02*
X12152253Y-8449531D01*
X12152253Y-8449531D02*
X12161777Y-8468579D01*
X12161777Y-8468579D02*
X12171301Y-8506674D01*
X12171301Y-8506674D02*
X12171301Y-8554293D01*
X12171301Y-8554293D02*
X12161777Y-8592389D01*
X12161777Y-8592389D02*
X12152253Y-8611436D01*
X12152253Y-8611436D02*
X12142729Y-8620960D01*
X12142729Y-8620960D02*
X12123682Y-8630484D01*
X12123682Y-8630484D02*
X12104634Y-8630484D01*
X12104634Y-8630484D02*
X12085586Y-8620960D01*
X12085586Y-8620960D02*
X12076063Y-8611436D01*
X12076063Y-8611436D02*
X12066539Y-8592389D01*
X12066539Y-8592389D02*
X12057015Y-8554293D01*
X12057015Y-8554293D02*
X12057015Y-8506674D01*
X12057015Y-8506674D02*
X12066539Y-8468579D01*
X12066539Y-8468579D02*
X12076063Y-8449531D01*
X12076063Y-8449531D02*
X12085586Y-8440008D01*
X12085586Y-8440008D02*
X12104634Y-8430484D01*
X12257015Y-8611436D02*
X12266539Y-8620960D01*
X12266539Y-8620960D02*
X12257015Y-8630484D01*
X12257015Y-8630484D02*
X12247491Y-8620960D01*
X12247491Y-8620960D02*
X12257015Y-8611436D01*
X12257015Y-8611436D02*
X12257015Y-8630484D01*
X12390348Y-8430484D02*
X12409396Y-8430484D01*
X12409396Y-8430484D02*
X12428444Y-8440008D01*
X12428444Y-8440008D02*
X12437967Y-8449531D01*
X12437967Y-8449531D02*
X12447491Y-8468579D01*
X12447491Y-8468579D02*
X12457015Y-8506674D01*
X12457015Y-8506674D02*
X12457015Y-8554293D01*
X12457015Y-8554293D02*
X12447491Y-8592389D01*
X12447491Y-8592389D02*
X12437967Y-8611436D01*
X12437967Y-8611436D02*
X12428444Y-8620960D01*
X12428444Y-8620960D02*
X12409396Y-8630484D01*
X12409396Y-8630484D02*
X12390348Y-8630484D01*
X12390348Y-8630484D02*
X12371301Y-8620960D01*
X12371301Y-8620960D02*
X12361777Y-8611436D01*
X12361777Y-8611436D02*
X12352253Y-8592389D01*
X12352253Y-8592389D02*
X12342729Y-8554293D01*
X12342729Y-8554293D02*
X12342729Y-8506674D01*
X12342729Y-8506674D02*
X12352253Y-8468579D01*
X12352253Y-8468579D02*
X12361777Y-8449531D01*
X12361777Y-8449531D02*
X12371301Y-8440008D01*
X12371301Y-8440008D02*
X12390348Y-8430484D01*
X12523682Y-8430484D02*
X12647491Y-8430484D01*
X12647491Y-8430484D02*
X12580825Y-8506674D01*
X12580825Y-8506674D02*
X12609396Y-8506674D01*
X12609396Y-8506674D02*
X12628444Y-8516198D01*
X12628444Y-8516198D02*
X12637967Y-8525722D01*
X12637967Y-8525722D02*
X12647491Y-8544770D01*
X12647491Y-8544770D02*
X12647491Y-8592389D01*
X12647491Y-8592389D02*
X12637967Y-8611436D01*
X12637967Y-8611436D02*
X12628444Y-8620960D01*
X12628444Y-8620960D02*
X12609396Y-8630484D01*
X12609396Y-8630484D02*
X12552253Y-8630484D01*
X12552253Y-8630484D02*
X12533206Y-8620960D01*
X12533206Y-8620960D02*
X12523682Y-8611436D01*
X12742729Y-8630484D02*
X12780825Y-8630484D01*
X12780825Y-8630484D02*
X12799872Y-8620960D01*
X12799872Y-8620960D02*
X12809396Y-8611436D01*
X12809396Y-8611436D02*
X12828444Y-8582865D01*
X12828444Y-8582865D02*
X12837967Y-8544770D01*
X12837967Y-8544770D02*
X12837967Y-8468579D01*
X12837967Y-8468579D02*
X12828444Y-8449531D01*
X12828444Y-8449531D02*
X12818920Y-8440008D01*
X12818920Y-8440008D02*
X12799872Y-8430484D01*
X12799872Y-8430484D02*
X12761777Y-8430484D01*
X12761777Y-8430484D02*
X12742729Y-8440008D01*
X12742729Y-8440008D02*
X12733206Y-8449531D01*
X12733206Y-8449531D02*
X12723682Y-8468579D01*
X12723682Y-8468579D02*
X12723682Y-8516198D01*
X12723682Y-8516198D02*
X12733206Y-8535246D01*
X12733206Y-8535246D02*
X12742729Y-8544770D01*
X12742729Y-8544770D02*
X12761777Y-8554293D01*
X12761777Y-8554293D02*
X12799872Y-8554293D01*
X12799872Y-8554293D02*
X12818920Y-8544770D01*
X12818920Y-8544770D02*
X12828444Y-8535246D01*
X12828444Y-8535246D02*
X12837967Y-8516198D01*
X13009396Y-8497150D02*
X13009396Y-8630484D01*
X12961777Y-8420960D02*
X12914158Y-8563817D01*
X12914158Y-8563817D02*
X13037967Y-8563817D01*
X13104634Y-8430484D02*
X13104634Y-8468579D01*
X13180825Y-8430484D02*
X13180825Y-8468579D01*
X13476063Y-8706674D02*
X13466539Y-8697150D01*
X13466539Y-8697150D02*
X13447491Y-8668579D01*
X13447491Y-8668579D02*
X13437968Y-8649531D01*
X13437968Y-8649531D02*
X13428444Y-8620960D01*
X13428444Y-8620960D02*
X13418920Y-8573341D01*
X13418920Y-8573341D02*
X13418920Y-8535246D01*
X13418920Y-8535246D02*
X13428444Y-8487627D01*
X13428444Y-8487627D02*
X13437968Y-8459055D01*
X13437968Y-8459055D02*
X13447491Y-8440008D01*
X13447491Y-8440008D02*
X13466539Y-8411436D01*
X13466539Y-8411436D02*
X13476063Y-8401912D01*
X13657015Y-8630484D02*
X13542729Y-8630484D01*
X13599872Y-8630484D02*
X13599872Y-8430484D01*
X13599872Y-8430484D02*
X13580825Y-8459055D01*
X13580825Y-8459055D02*
X13561777Y-8478103D01*
X13561777Y-8478103D02*
X13542729Y-8487627D01*
X13771301Y-8516198D02*
X13752253Y-8506674D01*
X13752253Y-8506674D02*
X13742729Y-8497150D01*
X13742729Y-8497150D02*
X13733206Y-8478103D01*
X13733206Y-8478103D02*
X13733206Y-8468579D01*
X13733206Y-8468579D02*
X13742729Y-8449531D01*
X13742729Y-8449531D02*
X13752253Y-8440008D01*
X13752253Y-8440008D02*
X13771301Y-8430484D01*
X13771301Y-8430484D02*
X13809396Y-8430484D01*
X13809396Y-8430484D02*
X13828444Y-8440008D01*
X13828444Y-8440008D02*
X13837968Y-8449531D01*
X13837968Y-8449531D02*
X13847491Y-8468579D01*
X13847491Y-8468579D02*
X13847491Y-8478103D01*
X13847491Y-8478103D02*
X13837968Y-8497150D01*
X13837968Y-8497150D02*
X13828444Y-8506674D01*
X13828444Y-8506674D02*
X13809396Y-8516198D01*
X13809396Y-8516198D02*
X13771301Y-8516198D01*
X13771301Y-8516198D02*
X13752253Y-8525722D01*
X13752253Y-8525722D02*
X13742729Y-8535246D01*
X13742729Y-8535246D02*
X13733206Y-8554293D01*
X13733206Y-8554293D02*
X13733206Y-8592389D01*
X13733206Y-8592389D02*
X13742729Y-8611436D01*
X13742729Y-8611436D02*
X13752253Y-8620960D01*
X13752253Y-8620960D02*
X13771301Y-8630484D01*
X13771301Y-8630484D02*
X13809396Y-8630484D01*
X13809396Y-8630484D02*
X13828444Y-8620960D01*
X13828444Y-8620960D02*
X13837968Y-8611436D01*
X13837968Y-8611436D02*
X13847491Y-8592389D01*
X13847491Y-8592389D02*
X13847491Y-8554293D01*
X13847491Y-8554293D02*
X13837968Y-8535246D01*
X13837968Y-8535246D02*
X13828444Y-8525722D01*
X13828444Y-8525722D02*
X13809396Y-8516198D01*
X14085587Y-8630484D02*
X14085587Y-8430484D01*
X14171301Y-8630484D02*
X14171301Y-8525722D01*
X14171301Y-8525722D02*
X14161777Y-8506674D01*
X14161777Y-8506674D02*
X14142730Y-8497150D01*
X14142730Y-8497150D02*
X14114158Y-8497150D01*
X14114158Y-8497150D02*
X14095110Y-8506674D01*
X14095110Y-8506674D02*
X14085587Y-8516198D01*
X14295110Y-8630484D02*
X14276063Y-8620960D01*
X14276063Y-8620960D02*
X14266539Y-8611436D01*
X14266539Y-8611436D02*
X14257015Y-8592389D01*
X14257015Y-8592389D02*
X14257015Y-8535246D01*
X14257015Y-8535246D02*
X14266539Y-8516198D01*
X14266539Y-8516198D02*
X14276063Y-8506674D01*
X14276063Y-8506674D02*
X14295110Y-8497150D01*
X14295110Y-8497150D02*
X14323682Y-8497150D01*
X14323682Y-8497150D02*
X14342730Y-8506674D01*
X14342730Y-8506674D02*
X14352253Y-8516198D01*
X14352253Y-8516198D02*
X14361777Y-8535246D01*
X14361777Y-8535246D02*
X14361777Y-8592389D01*
X14361777Y-8592389D02*
X14352253Y-8611436D01*
X14352253Y-8611436D02*
X14342730Y-8620960D01*
X14342730Y-8620960D02*
X14323682Y-8630484D01*
X14323682Y-8630484D02*
X14295110Y-8630484D01*
X14476063Y-8630484D02*
X14457015Y-8620960D01*
X14457015Y-8620960D02*
X14447491Y-8601912D01*
X14447491Y-8601912D02*
X14447491Y-8430484D01*
X14628444Y-8620960D02*
X14609396Y-8630484D01*
X14609396Y-8630484D02*
X14571301Y-8630484D01*
X14571301Y-8630484D02*
X14552253Y-8620960D01*
X14552253Y-8620960D02*
X14542730Y-8601912D01*
X14542730Y-8601912D02*
X14542730Y-8525722D01*
X14542730Y-8525722D02*
X14552253Y-8506674D01*
X14552253Y-8506674D02*
X14571301Y-8497150D01*
X14571301Y-8497150D02*
X14609396Y-8497150D01*
X14609396Y-8497150D02*
X14628444Y-8506674D01*
X14628444Y-8506674D02*
X14637968Y-8525722D01*
X14637968Y-8525722D02*
X14637968Y-8544770D01*
X14637968Y-8544770D02*
X14542730Y-8563817D01*
X14714158Y-8620960D02*
X14733206Y-8630484D01*
X14733206Y-8630484D02*
X14771301Y-8630484D01*
X14771301Y-8630484D02*
X14790349Y-8620960D01*
X14790349Y-8620960D02*
X14799872Y-8601912D01*
X14799872Y-8601912D02*
X14799872Y-8592389D01*
X14799872Y-8592389D02*
X14790349Y-8573341D01*
X14790349Y-8573341D02*
X14771301Y-8563817D01*
X14771301Y-8563817D02*
X14742730Y-8563817D01*
X14742730Y-8563817D02*
X14723682Y-8554293D01*
X14723682Y-8554293D02*
X14714158Y-8535246D01*
X14714158Y-8535246D02*
X14714158Y-8525722D01*
X14714158Y-8525722D02*
X14723682Y-8506674D01*
X14723682Y-8506674D02*
X14742730Y-8497150D01*
X14742730Y-8497150D02*
X14771301Y-8497150D01*
X14771301Y-8497150D02*
X14790349Y-8506674D01*
X14866539Y-8706674D02*
X14876063Y-8697150D01*
X14876063Y-8697150D02*
X14895111Y-8668579D01*
X14895111Y-8668579D02*
X14904634Y-8649531D01*
X14904634Y-8649531D02*
X14914158Y-8620960D01*
X14914158Y-8620960D02*
X14923682Y-8573341D01*
X14923682Y-8573341D02*
X14923682Y-8535246D01*
X14923682Y-8535246D02*
X14914158Y-8487627D01*
X14914158Y-8487627D02*
X14904634Y-8459055D01*
X14904634Y-8459055D02*
X14895111Y-8440008D01*
X14895111Y-8440008D02*
X14876063Y-8411436D01*
X14876063Y-8411436D02*
X14866539Y-8401912D01*
M02*
