%TF.GenerationSoftware,KiCad,Pcbnew,7.0.10*%
%TF.CreationDate,2024-02-14T05:56:45+09:00*%
%TF.ProjectId,drv8833,64727638-3833-4332-9e6b-696361645f70,rev?*%
%TF.SameCoordinates,Original*%
%TF.FileFunction,Copper,L1,Top*%
%TF.FilePolarity,Positive*%
%FSLAX46Y46*%
G04 Gerber Fmt 4.6, Leading zero omitted, Abs format (unit mm)*
G04 Created by KiCad (PCBNEW 7.0.10) date 2024-02-14 05:56:45*
%MOMM*%
%LPD*%
G01*
G04 APERTURE LIST*
G04 Aperture macros list*
%AMRoundRect*
0 Rectangle with rounded corners*
0 $1 Rounding radius*
0 $2 $3 $4 $5 $6 $7 $8 $9 X,Y pos of 4 corners*
0 Add a 4 corners polygon primitive as box body*
4,1,4,$2,$3,$4,$5,$6,$7,$8,$9,$2,$3,0*
0 Add four circle primitives for the rounded corners*
1,1,$1+$1,$2,$3*
1,1,$1+$1,$4,$5*
1,1,$1+$1,$6,$7*
1,1,$1+$1,$8,$9*
0 Add four rect primitives between the rounded corners*
20,1,$1+$1,$2,$3,$4,$5,0*
20,1,$1+$1,$4,$5,$6,$7,0*
20,1,$1+$1,$6,$7,$8,$9,0*
20,1,$1+$1,$8,$9,$2,$3,0*%
G04 Aperture macros list end*
%TA.AperFunction,SMDPad,CuDef*%
%ADD10RoundRect,0.200000X0.275000X-0.200000X0.275000X0.200000X-0.275000X0.200000X-0.275000X-0.200000X0*%
%TD*%
%TA.AperFunction,ComponentPad*%
%ADD11R,1.700000X1.700000*%
%TD*%
%TA.AperFunction,ComponentPad*%
%ADD12O,1.700000X1.700000*%
%TD*%
%TA.AperFunction,SMDPad,CuDef*%
%ADD13RoundRect,0.200000X0.200000X0.275000X-0.200000X0.275000X-0.200000X-0.275000X0.200000X-0.275000X0*%
%TD*%
%TA.AperFunction,SMDPad,CuDef*%
%ADD14RoundRect,0.225000X-0.225000X-0.250000X0.225000X-0.250000X0.225000X0.250000X-0.225000X0.250000X0*%
%TD*%
%TA.AperFunction,SMDPad,CuDef*%
%ADD15RoundRect,0.100000X-0.687500X-0.100000X0.687500X-0.100000X0.687500X0.100000X-0.687500X0.100000X0*%
%TD*%
%TA.AperFunction,ComponentPad*%
%ADD16C,0.600000*%
%TD*%
%TA.AperFunction,SMDPad,CuDef*%
%ADD17R,3.400000X5.000000*%
%TD*%
%TA.AperFunction,SMDPad,CuDef*%
%ADD18RoundRect,0.225000X-0.250000X0.225000X-0.250000X-0.225000X0.250000X-0.225000X0.250000X0.225000X0*%
%TD*%
%TA.AperFunction,ViaPad*%
%ADD19C,0.800000*%
%TD*%
%TA.AperFunction,Conductor*%
%ADD20C,1.000000*%
%TD*%
%TA.AperFunction,Conductor*%
%ADD21C,0.250000*%
%TD*%
%TA.AperFunction,Conductor*%
%ADD22C,0.300000*%
%TD*%
G04 APERTURE END LIST*
D10*
%TO.P,R1,1*%
%TO.N,nSLEEP*%
X114808000Y-63055000D03*
%TO.P,R1,2*%
%TO.N,GND*%
X114808000Y-61405000D03*
%TD*%
D11*
%TO.P,J1,1,Pin_1*%
%TO.N,+3.3V*%
X134620000Y-58420000D03*
D12*
%TO.P,J1,2,Pin_2*%
%TO.N,unconnected-(J1-Pin_2-Pad2)*%
X137160000Y-58420000D03*
%TO.P,J1,3,Pin_3*%
%TO.N,GND*%
X134620000Y-60960000D03*
%TO.P,J1,4,Pin_4*%
%TO.N,unconnected-(J1-Pin_4-Pad4)*%
X137160000Y-60960000D03*
%TO.P,J1,5,Pin_5*%
%TO.N,Net-(J1-Pin_5)*%
X134620000Y-63500000D03*
%TO.P,J1,6,Pin_6*%
%TO.N,unconnected-(J1-Pin_6-Pad6)*%
X137160000Y-63500000D03*
%TO.P,J1,7,Pin_7*%
%TO.N,Net-(J1-Pin_7)*%
X134620000Y-66040000D03*
%TO.P,J1,8,Pin_8*%
%TO.N,unconnected-(J1-Pin_8-Pad8)*%
X137160000Y-66040000D03*
%TO.P,J1,9,Pin_9*%
%TO.N,Net-(J1-Pin_9)*%
X134620000Y-68580000D03*
%TO.P,J1,10,Pin_10*%
%TO.N,unconnected-(J1-Pin_10-Pad10)*%
X137160000Y-68580000D03*
%TO.P,J1,11,Pin_11*%
%TO.N,Net-(J1-Pin_11)*%
X134620000Y-71120000D03*
%TO.P,J1,12,Pin_12*%
%TO.N,nSLEEP*%
X137160000Y-71120000D03*
%TD*%
D13*
%TO.P,R2,1*%
%TO.N,Net-(U1-BISEN)*%
X110553000Y-71120000D03*
%TO.P,R2,2*%
%TO.N,GND*%
X108903000Y-71120000D03*
%TD*%
D11*
%TO.P,J3,1,Pin_1*%
%TO.N,Net-(J3-Pin_1)*%
X101854000Y-70866000D03*
D12*
%TO.P,J3,2,Pin_2*%
%TO.N,Net-(J3-Pin_2)*%
X101854000Y-68326000D03*
%TD*%
D14*
%TO.P,C2,1*%
%TO.N,+BATT*%
X124193000Y-59690000D03*
%TO.P,C2,2*%
%TO.N,GND*%
X125743000Y-59690000D03*
%TD*%
D15*
%TO.P,U1,1,nSLEEP*%
%TO.N,nSLEEP*%
X114727500Y-66075000D03*
%TO.P,U1,2,AOUT1*%
%TO.N,Net-(J2-Pin_1)*%
X114727500Y-66725000D03*
%TO.P,U1,3,AISEN*%
%TO.N,Net-(U1-AISEN)*%
X114727500Y-67375000D03*
%TO.P,U1,4,AOUT2*%
%TO.N,Net-(J2-Pin_2)*%
X114727500Y-68025000D03*
%TO.P,U1,5,BOUT2*%
%TO.N,Net-(J3-Pin_2)*%
X114727500Y-68675000D03*
%TO.P,U1,6,BISEN*%
%TO.N,Net-(U1-BISEN)*%
X114727500Y-69325000D03*
%TO.P,U1,7,BOUT1*%
%TO.N,Net-(J3-Pin_1)*%
X114727500Y-69975000D03*
%TO.P,U1,8,nFAULT*%
%TO.N,unconnected-(U1-nFAULT-Pad8)*%
X114727500Y-70625000D03*
%TO.P,U1,9,BIN1*%
%TO.N,Net-(J1-Pin_11)*%
X120452500Y-70625000D03*
%TO.P,U1,10,BIN2*%
%TO.N,Net-(J1-Pin_9)*%
X120452500Y-69975000D03*
%TO.P,U1,11,VCP*%
%TO.N,Net-(U1-VCP)*%
X120452500Y-69325000D03*
%TO.P,U1,12,VM*%
%TO.N,+BATT*%
X120452500Y-68675000D03*
%TO.P,U1,13,GND*%
%TO.N,GND*%
X120452500Y-68025000D03*
%TO.P,U1,14,VINT*%
%TO.N,Net-(U1-VINT)*%
X120452500Y-67375000D03*
%TO.P,U1,15,AIN2*%
%TO.N,Net-(J1-Pin_7)*%
X120452500Y-66725000D03*
%TO.P,U1,16,AIN1*%
%TO.N,Net-(J1-Pin_5)*%
X120452500Y-66075000D03*
D16*
%TO.P,U1,17,GND(PPAD)*%
%TO.N,GND*%
X116840000Y-66850000D03*
X116840000Y-68350000D03*
X116840000Y-69850000D03*
D17*
X117590000Y-68350000D03*
D16*
X118340000Y-66850000D03*
X118340000Y-68350000D03*
X118340000Y-69850000D03*
%TD*%
D11*
%TO.P,J2,1,Pin_1*%
%TO.N,Net-(J2-Pin_1)*%
X101854000Y-58674000D03*
D12*
%TO.P,J2,2,Pin_2*%
%TO.N,Net-(J2-Pin_2)*%
X101854000Y-61214000D03*
%TD*%
D11*
%TO.P,J4,1,Pin_1*%
%TO.N,+BATT*%
X117551200Y-57429400D03*
D12*
%TO.P,J4,2,Pin_2*%
%TO.N,GND*%
X115011200Y-57429400D03*
%TD*%
D18*
%TO.P,C3,1*%
%TO.N,+BATT*%
X125730000Y-67818000D03*
%TO.P,C3,2*%
%TO.N,Net-(U1-VCP)*%
X125730000Y-69368000D03*
%TD*%
D14*
%TO.P,C1,1*%
%TO.N,Net-(U1-VINT)*%
X124955000Y-66294000D03*
%TO.P,C1,2*%
%TO.N,GND*%
X126505000Y-66294000D03*
%TD*%
D13*
%TO.P,R3,1*%
%TO.N,Net-(U1-AISEN)*%
X110616000Y-66040000D03*
%TO.P,R3,2*%
%TO.N,GND*%
X108966000Y-66040000D03*
%TD*%
D19*
%TO.N,GND*%
X128016000Y-59690000D03*
X131826000Y-60960000D03*
X107950000Y-71120000D03*
X114808000Y-60452000D03*
X107950000Y-66040000D03*
X128016000Y-66294000D03*
%TO.N,+BATT*%
X122682000Y-68326000D03*
X123698000Y-68326000D03*
X122682000Y-63500000D03*
X123698000Y-63500000D03*
%TO.N,nSLEEP*%
X114554000Y-64516000D03*
%TD*%
D20*
%TO.N,GND*%
X125743000Y-59690000D02*
X128016000Y-59690000D01*
D21*
X108649000Y-71120000D02*
X107950000Y-71120000D01*
X118665000Y-68025000D02*
X120452500Y-68025000D01*
X118364000Y-68326000D02*
X118665000Y-68025000D01*
X108903000Y-71374000D02*
X108649000Y-71120000D01*
X114808000Y-60452000D02*
X114808000Y-60706000D01*
X126505000Y-66294000D02*
X128016000Y-66294000D01*
X114808000Y-61405000D02*
X114808000Y-60452000D01*
D20*
X134620000Y-60960000D02*
X131826000Y-60960000D01*
D21*
X108966000Y-66040000D02*
X107950000Y-66040000D01*
%TO.N,Net-(J1-Pin_9)*%
X121193812Y-69975000D02*
X120452500Y-69975000D01*
X134620000Y-68580000D02*
X132842000Y-70358000D01*
X132842000Y-70358000D02*
X121576812Y-70358000D01*
X121576812Y-70358000D02*
X121193812Y-69975000D01*
%TO.N,Net-(J1-Pin_5)*%
X134620000Y-63500000D02*
X133604000Y-64516000D01*
X134330000Y-63210000D02*
X134620000Y-63500000D01*
X122011500Y-64516000D02*
X120452500Y-66075000D01*
X133604000Y-64516000D02*
X122011500Y-64516000D01*
%TO.N,Net-(J1-Pin_7)*%
X134620000Y-66040000D02*
X133604000Y-65024000D01*
X121193812Y-66725000D02*
X120452500Y-66725000D01*
X133604000Y-65024000D02*
X122894812Y-65024000D01*
X122894812Y-65024000D02*
X121193812Y-66725000D01*
%TO.N,Net-(J1-Pin_11)*%
X121201500Y-71374000D02*
X120452500Y-70625000D01*
X134366000Y-71374000D02*
X121201500Y-71374000D01*
X134620000Y-71120000D02*
X134366000Y-71374000D01*
%TO.N,Net-(U1-VINT)*%
X124955000Y-66294000D02*
X122274812Y-66294000D01*
X122274812Y-66294000D02*
X121193812Y-67375000D01*
X121193812Y-67375000D02*
X120452500Y-67375000D01*
X120517500Y-67310000D02*
X120452500Y-67375000D01*
%TO.N,+BATT*%
X124206000Y-67818000D02*
X123698000Y-68326000D01*
D22*
X122682000Y-68326000D02*
X122333000Y-68675000D01*
D20*
X122148600Y-61950600D02*
X122148600Y-60706000D01*
X123444000Y-62484000D02*
X123698000Y-62230000D01*
X122682000Y-61468000D02*
X122682000Y-63500000D01*
X124193000Y-60452000D02*
X123190000Y-60452000D01*
X123698000Y-61468000D02*
X123698000Y-62230000D01*
X124193000Y-61227000D02*
X123952000Y-61468000D01*
X123190000Y-60452000D02*
X123063000Y-60579000D01*
X122148600Y-61950600D02*
X122682000Y-62484000D01*
X122148600Y-60706000D02*
X122148600Y-59690000D01*
X118872000Y-57429400D02*
X122148600Y-60706000D01*
X117551200Y-57429400D02*
X118872000Y-57429400D01*
D22*
X122333000Y-68675000D02*
X120452500Y-68675000D01*
D20*
X119888000Y-57429400D02*
X117551200Y-57429400D01*
X121780300Y-59321700D02*
X122148600Y-59690000D01*
X122682000Y-62484000D02*
X122682000Y-63500000D01*
X123698000Y-61468000D02*
X122682000Y-61468000D01*
X124193000Y-59690000D02*
X124193000Y-60452000D01*
X123952000Y-61468000D02*
X123063000Y-60579000D01*
X123698000Y-61468000D02*
X123952000Y-61468000D01*
X122682000Y-60198000D02*
X122682000Y-61468000D01*
X123698000Y-62230000D02*
X123698000Y-63500000D01*
X122682000Y-59690000D02*
X122682000Y-60198000D01*
X123063000Y-60579000D02*
X122682000Y-60198000D01*
X122148600Y-59690000D02*
X122682000Y-59690000D01*
X122682000Y-62484000D02*
X123444000Y-62484000D01*
D21*
X125730000Y-67818000D02*
X124206000Y-67818000D01*
D20*
X119888000Y-57429400D02*
X121780300Y-59321700D01*
X123698000Y-68326000D02*
X122682000Y-68326000D01*
X122682000Y-59690000D02*
X124193000Y-59690000D01*
X124193000Y-60452000D02*
X124193000Y-61227000D01*
D21*
%TO.N,nSLEEP*%
X114727500Y-66075000D02*
X114727500Y-64689500D01*
X114808000Y-64262000D02*
X114554000Y-64516000D01*
X114727500Y-64689500D02*
X114554000Y-64516000D01*
X114808000Y-63055000D02*
X114808000Y-64262000D01*
D20*
%TO.N,Net-(J2-Pin_1)*%
X106680000Y-58674000D02*
X101854000Y-58674000D01*
X112776000Y-64770000D02*
X106680000Y-58674000D01*
D21*
X112776000Y-65514812D02*
X113986188Y-66725000D01*
X113986188Y-66725000D02*
X114727500Y-66725000D01*
X112776000Y-64770000D02*
X112776000Y-65514812D01*
%TO.N,Net-(J2-Pin_2)*%
X113986188Y-68025000D02*
X114727500Y-68025000D01*
D20*
X101854000Y-62738000D02*
X101854000Y-61214000D01*
D21*
X111760000Y-68072000D02*
X113939188Y-68072000D01*
D20*
X111760000Y-68072000D02*
X107188000Y-68072000D01*
D21*
X113939188Y-68072000D02*
X113986188Y-68025000D01*
D20*
X107188000Y-68072000D02*
X101854000Y-62738000D01*
D21*
%TO.N,Net-(J3-Pin_1)*%
X113986188Y-69975000D02*
X114727500Y-69975000D01*
D20*
X103378000Y-72390000D02*
X101854000Y-70866000D01*
X111665594Y-72295594D02*
X111571188Y-72390000D01*
D21*
X111665594Y-72295594D02*
X113986188Y-69975000D01*
D20*
X111571188Y-72390000D02*
X103378000Y-72390000D01*
%TO.N,Net-(J3-Pin_2)*%
X104648000Y-69596000D02*
X112014000Y-69596000D01*
D21*
X113189000Y-68675000D02*
X112268000Y-69596000D01*
D20*
X103378000Y-68326000D02*
X104648000Y-69596000D01*
D21*
X114727500Y-68675000D02*
X113189000Y-68675000D01*
D20*
X101854000Y-68326000D02*
X103378000Y-68326000D01*
D21*
X112268000Y-69596000D02*
X112014000Y-69596000D01*
%TO.N,Net-(U1-AISEN)*%
X111760000Y-66040000D02*
X113095000Y-67375000D01*
X110616000Y-66040000D02*
X111760000Y-66040000D01*
X113095000Y-67375000D02*
X114727500Y-67375000D01*
%TO.N,Net-(U1-BISEN)*%
X112014000Y-71120000D02*
X110807000Y-71120000D01*
X114727500Y-69325000D02*
X113809000Y-69325000D01*
X110807000Y-71120000D02*
X110553000Y-71374000D01*
X113809000Y-69325000D02*
X112014000Y-71120000D01*
%TO.N,Net-(U1-VCP)*%
X125730000Y-69368000D02*
X122742000Y-69368000D01*
D22*
X120452500Y-69325000D02*
X122699000Y-69325000D01*
D21*
X122742000Y-69368000D02*
X122699000Y-69325000D01*
%TD*%
M02*
