%TF.GenerationSoftware,KiCad,Pcbnew,7.0.10*%
%TF.CreationDate,2024-02-14T05:56:45+09:00*%
%TF.ProjectId,drv8833,64727638-3833-4332-9e6b-696361645f70,rev?*%
%TF.SameCoordinates,Original*%
%TF.FileFunction,Copper,L2,Bot*%
%TF.FilePolarity,Positive*%
%FSLAX46Y46*%
G04 Gerber Fmt 4.6, Leading zero omitted, Abs format (unit mm)*
G04 Created by KiCad (PCBNEW 7.0.10) date 2024-02-14 05:56:45*
%MOMM*%
%LPD*%
G01*
G04 APERTURE LIST*
%TA.AperFunction,ComponentPad*%
%ADD10R,1.700000X1.700000*%
%TD*%
%TA.AperFunction,ComponentPad*%
%ADD11O,1.700000X1.700000*%
%TD*%
%TA.AperFunction,ComponentPad*%
%ADD12C,0.600000*%
%TD*%
%TA.AperFunction,SMDPad,CuDef*%
%ADD13R,2.000000X3.500000*%
%TD*%
%TA.AperFunction,ViaPad*%
%ADD14C,0.800000*%
%TD*%
%TA.AperFunction,Conductor*%
%ADD15C,1.000000*%
%TD*%
%TA.AperFunction,Conductor*%
%ADD16C,0.250000*%
%TD*%
G04 APERTURE END LIST*
D10*
%TO.P,J1,1,Pin_1*%
%TO.N,+3.3V*%
X134620000Y-58420000D03*
D11*
%TO.P,J1,2,Pin_2*%
%TO.N,unconnected-(J1-Pin_2-Pad2)*%
X137160000Y-58420000D03*
%TO.P,J1,3,Pin_3*%
%TO.N,GND*%
X134620000Y-60960000D03*
%TO.P,J1,4,Pin_4*%
%TO.N,unconnected-(J1-Pin_4-Pad4)*%
X137160000Y-60960000D03*
%TO.P,J1,5,Pin_5*%
%TO.N,Net-(J1-Pin_5)*%
X134620000Y-63500000D03*
%TO.P,J1,6,Pin_6*%
%TO.N,unconnected-(J1-Pin_6-Pad6)*%
X137160000Y-63500000D03*
%TO.P,J1,7,Pin_7*%
%TO.N,Net-(J1-Pin_7)*%
X134620000Y-66040000D03*
%TO.P,J1,8,Pin_8*%
%TO.N,unconnected-(J1-Pin_8-Pad8)*%
X137160000Y-66040000D03*
%TO.P,J1,9,Pin_9*%
%TO.N,Net-(J1-Pin_9)*%
X134620000Y-68580000D03*
%TO.P,J1,10,Pin_10*%
%TO.N,unconnected-(J1-Pin_10-Pad10)*%
X137160000Y-68580000D03*
%TO.P,J1,11,Pin_11*%
%TO.N,Net-(J1-Pin_11)*%
X134620000Y-71120000D03*
%TO.P,J1,12,Pin_12*%
%TO.N,nSLEEP*%
X137160000Y-71120000D03*
%TD*%
D10*
%TO.P,J3,1,Pin_1*%
%TO.N,Net-(J3-Pin_1)*%
X101854000Y-70866000D03*
D11*
%TO.P,J3,2,Pin_2*%
%TO.N,Net-(J3-Pin_2)*%
X101854000Y-68326000D03*
%TD*%
D12*
%TO.P,U1,17,GND(PPAD)*%
%TO.N,GND*%
X116840000Y-66850000D03*
X116840000Y-68350000D03*
X116840000Y-69850000D03*
D13*
X117590000Y-68350000D03*
D12*
X118340000Y-66850000D03*
X118340000Y-68350000D03*
X118340000Y-69850000D03*
%TD*%
D10*
%TO.P,J2,1,Pin_1*%
%TO.N,Net-(J2-Pin_1)*%
X101854000Y-58674000D03*
D11*
%TO.P,J2,2,Pin_2*%
%TO.N,Net-(J2-Pin_2)*%
X101854000Y-61214000D03*
%TD*%
D10*
%TO.P,J4,1,Pin_1*%
%TO.N,+BATT*%
X117551200Y-57429400D03*
D11*
%TO.P,J4,2,Pin_2*%
%TO.N,GND*%
X115011200Y-57429400D03*
%TD*%
D14*
%TO.N,GND*%
X128016000Y-59690000D03*
X131826000Y-60960000D03*
X107950000Y-71120000D03*
X114808000Y-60452000D03*
X107950000Y-66040000D03*
X128016000Y-66294000D03*
%TO.N,+BATT*%
X122682000Y-68326000D03*
X123698000Y-68326000D03*
X122682000Y-63500000D03*
X123698000Y-63500000D03*
%TO.N,nSLEEP*%
X114554000Y-64516000D03*
%TD*%
D15*
%TO.N,+BATT*%
X122682000Y-65024000D02*
X122682000Y-65532000D01*
X123698000Y-65532000D02*
X122682000Y-65532000D01*
X123698000Y-66294000D02*
X123698000Y-66802000D01*
X123698000Y-65024000D02*
X123698000Y-65532000D01*
X123698000Y-63500000D02*
X123698000Y-65024000D01*
X122682000Y-67818000D02*
X122682000Y-66294000D01*
X123698000Y-66802000D02*
X123698000Y-68326000D01*
X122682000Y-64516000D02*
X122682000Y-65024000D01*
X123698000Y-65024000D02*
X122682000Y-65024000D01*
X123698000Y-65532000D02*
X123698000Y-66294000D01*
X122682000Y-66294000D02*
X122682000Y-65532000D01*
X122682000Y-67818000D02*
X122682000Y-68326000D01*
X123698000Y-63500000D02*
X122682000Y-64516000D01*
X123698000Y-66294000D02*
X122682000Y-66294000D01*
X122682000Y-63500000D02*
X123698000Y-63500000D01*
X123698000Y-66802000D02*
X122682000Y-67818000D01*
X122682000Y-63500000D02*
X122682000Y-64516000D01*
D16*
%TO.N,nSLEEP*%
X112522000Y-66040000D02*
X112522000Y-65278000D01*
X112522000Y-71882000D02*
X112935000Y-72295000D01*
X112522000Y-66294000D02*
X112522000Y-66040000D01*
X112522000Y-66294000D02*
X112522000Y-71882000D01*
X112522000Y-65278000D02*
X113284000Y-64516000D01*
X135985000Y-72295000D02*
X137160000Y-71120000D01*
X113284000Y-64516000D02*
X114554000Y-64516000D01*
X112935000Y-72295000D02*
X135985000Y-72295000D01*
%TD*%
%TA.AperFunction,Conductor*%
%TO.N,GND*%
G36*
X113661940Y-56915685D02*
G01*
X113707695Y-56968489D01*
X113717639Y-57037647D01*
X113714676Y-57052094D01*
X113680564Y-57179399D01*
X113680564Y-57179400D01*
X114577514Y-57179400D01*
X114551707Y-57219556D01*
X114511200Y-57357511D01*
X114511200Y-57501289D01*
X114551707Y-57639244D01*
X114577514Y-57679400D01*
X113680564Y-57679400D01*
X113737767Y-57892886D01*
X113737770Y-57892892D01*
X113837599Y-58106978D01*
X113973094Y-58300482D01*
X114140117Y-58467505D01*
X114333621Y-58603000D01*
X114547707Y-58702829D01*
X114547716Y-58702833D01*
X114761200Y-58760034D01*
X114761200Y-57864901D01*
X114868885Y-57914080D01*
X114975437Y-57929400D01*
X115046963Y-57929400D01*
X115153515Y-57914080D01*
X115261200Y-57864901D01*
X115261200Y-58760033D01*
X115474683Y-58702833D01*
X115474692Y-58702829D01*
X115688778Y-58603000D01*
X115882278Y-58467508D01*
X116004333Y-58345453D01*
X116065656Y-58311968D01*
X116135348Y-58316952D01*
X116191282Y-58358823D01*
X116208197Y-58389801D01*
X116257402Y-58521728D01*
X116257406Y-58521735D01*
X116343652Y-58636944D01*
X116343655Y-58636947D01*
X116458864Y-58723193D01*
X116458871Y-58723197D01*
X116593717Y-58773491D01*
X116593716Y-58773491D01*
X116600644Y-58774235D01*
X116653327Y-58779900D01*
X118449072Y-58779899D01*
X118508683Y-58773491D01*
X118643531Y-58723196D01*
X118758746Y-58636946D01*
X118844996Y-58521731D01*
X118895291Y-58386883D01*
X118901700Y-58327273D01*
X118901699Y-57019999D01*
X118921384Y-56952961D01*
X118974187Y-56907206D01*
X119025699Y-56896000D01*
X133463428Y-56896000D01*
X133530467Y-56915685D01*
X133576222Y-56968489D01*
X133586166Y-57037647D01*
X133557141Y-57101203D01*
X133533995Y-57119855D01*
X133534769Y-57120888D01*
X133412455Y-57212452D01*
X133412452Y-57212455D01*
X133326206Y-57327664D01*
X133326202Y-57327671D01*
X133275908Y-57462517D01*
X133269501Y-57522116D01*
X133269500Y-57522135D01*
X133269500Y-59317870D01*
X133269501Y-59317876D01*
X133275908Y-59377483D01*
X133326202Y-59512328D01*
X133326206Y-59512335D01*
X133412452Y-59627544D01*
X133412455Y-59627547D01*
X133527664Y-59713793D01*
X133527671Y-59713797D01*
X133527674Y-59713798D01*
X133659598Y-59763002D01*
X133715531Y-59804873D01*
X133739949Y-59870337D01*
X133725098Y-59938610D01*
X133703947Y-59966865D01*
X133581886Y-60088926D01*
X133446400Y-60282420D01*
X133446399Y-60282422D01*
X133346570Y-60496507D01*
X133346567Y-60496513D01*
X133289364Y-60709999D01*
X133289364Y-60710000D01*
X134186314Y-60710000D01*
X134160507Y-60750156D01*
X134120000Y-60888111D01*
X134120000Y-61031889D01*
X134160507Y-61169844D01*
X134186314Y-61210000D01*
X133289364Y-61210000D01*
X133346567Y-61423486D01*
X133346570Y-61423492D01*
X133446399Y-61637578D01*
X133581894Y-61831082D01*
X133748917Y-61998105D01*
X133934595Y-62128119D01*
X133978219Y-62182696D01*
X133985412Y-62252195D01*
X133953890Y-62314549D01*
X133934595Y-62331269D01*
X133748594Y-62461508D01*
X133581505Y-62628597D01*
X133445965Y-62822169D01*
X133445964Y-62822171D01*
X133346098Y-63036335D01*
X133346094Y-63036344D01*
X133284938Y-63264586D01*
X133284936Y-63264596D01*
X133264341Y-63499999D01*
X133264341Y-63500000D01*
X133284936Y-63735403D01*
X133284938Y-63735413D01*
X133346094Y-63963655D01*
X133346096Y-63963659D01*
X133346097Y-63963663D01*
X133409065Y-64098697D01*
X133445965Y-64177830D01*
X133445967Y-64177834D01*
X133550933Y-64327740D01*
X133581501Y-64371396D01*
X133581506Y-64371402D01*
X133748597Y-64538493D01*
X133748603Y-64538498D01*
X133934158Y-64668425D01*
X133977783Y-64723002D01*
X133984977Y-64792500D01*
X133953454Y-64854855D01*
X133934158Y-64871575D01*
X133748597Y-65001505D01*
X133581505Y-65168597D01*
X133445965Y-65362169D01*
X133445964Y-65362171D01*
X133346098Y-65576335D01*
X133346094Y-65576344D01*
X133284938Y-65804586D01*
X133284936Y-65804596D01*
X133264341Y-66039999D01*
X133264341Y-66040000D01*
X133284936Y-66275403D01*
X133284938Y-66275413D01*
X133346094Y-66503655D01*
X133346096Y-66503659D01*
X133346097Y-66503663D01*
X133386855Y-66591068D01*
X133445965Y-66717830D01*
X133445967Y-66717834D01*
X133538513Y-66850002D01*
X133581501Y-66911396D01*
X133581506Y-66911402D01*
X133748597Y-67078493D01*
X133748603Y-67078498D01*
X133934158Y-67208425D01*
X133977783Y-67263002D01*
X133984977Y-67332500D01*
X133953454Y-67394855D01*
X133934158Y-67411575D01*
X133748597Y-67541505D01*
X133581505Y-67708597D01*
X133445965Y-67902169D01*
X133445964Y-67902171D01*
X133346098Y-68116335D01*
X133346094Y-68116344D01*
X133284938Y-68344586D01*
X133284936Y-68344596D01*
X133264341Y-68579999D01*
X133264341Y-68580000D01*
X133284936Y-68815403D01*
X133284938Y-68815413D01*
X133346094Y-69043655D01*
X133346096Y-69043659D01*
X133346097Y-69043663D01*
X133417787Y-69197402D01*
X133445965Y-69257830D01*
X133445967Y-69257834D01*
X133531964Y-69380649D01*
X133581501Y-69451396D01*
X133581506Y-69451402D01*
X133748597Y-69618493D01*
X133748603Y-69618498D01*
X133934158Y-69748425D01*
X133977783Y-69803002D01*
X133984977Y-69872500D01*
X133953454Y-69934855D01*
X133934158Y-69951575D01*
X133748597Y-70081505D01*
X133581505Y-70248597D01*
X133445965Y-70442169D01*
X133445964Y-70442171D01*
X133346098Y-70656335D01*
X133346094Y-70656344D01*
X133284938Y-70884586D01*
X133284936Y-70884596D01*
X133264341Y-71119999D01*
X133264341Y-71120000D01*
X133284936Y-71355403D01*
X133284938Y-71355413D01*
X133327272Y-71513407D01*
X133325609Y-71583257D01*
X133286446Y-71641119D01*
X133222218Y-71668623D01*
X133207497Y-71669500D01*
X113271500Y-71669500D01*
X113204461Y-71649815D01*
X113158706Y-71597011D01*
X113147500Y-71545500D01*
X113147500Y-69850002D01*
X116034938Y-69850002D01*
X116055121Y-70029137D01*
X116083042Y-70108931D01*
X116089095Y-70144559D01*
X116089540Y-70144536D01*
X116089644Y-70144525D01*
X116089644Y-70144530D01*
X116089823Y-70144521D01*
X116090000Y-70147844D01*
X116096401Y-70207372D01*
X116096403Y-70207379D01*
X116146645Y-70342086D01*
X116146649Y-70342093D01*
X116232809Y-70457187D01*
X116232812Y-70457190D01*
X116347906Y-70543350D01*
X116347913Y-70543354D01*
X116482620Y-70593596D01*
X116482627Y-70593598D01*
X116542155Y-70599999D01*
X116545479Y-70600177D01*
X116545469Y-70600355D01*
X116545475Y-70600356D01*
X116545463Y-70600459D01*
X116545440Y-70600904D01*
X116581068Y-70606958D01*
X116660857Y-70634877D01*
X116660861Y-70634878D01*
X116839997Y-70655062D01*
X116840003Y-70655062D01*
X117019138Y-70634878D01*
X117019142Y-70634877D01*
X117098932Y-70606958D01*
X117139886Y-70600000D01*
X117340000Y-70600000D01*
X117840000Y-70600000D01*
X118040114Y-70600000D01*
X118081068Y-70606958D01*
X118160857Y-70634877D01*
X118160861Y-70634878D01*
X118339997Y-70655062D01*
X118340003Y-70655062D01*
X118519138Y-70634878D01*
X118519142Y-70634877D01*
X118598932Y-70606958D01*
X118634559Y-70600904D01*
X118634536Y-70600459D01*
X118634525Y-70600356D01*
X118634530Y-70600355D01*
X118634521Y-70600177D01*
X118637844Y-70599999D01*
X118697372Y-70593598D01*
X118697379Y-70593596D01*
X118832086Y-70543354D01*
X118832093Y-70543350D01*
X118947187Y-70457190D01*
X118947190Y-70457187D01*
X119033350Y-70342093D01*
X119033354Y-70342086D01*
X119083596Y-70207379D01*
X119083598Y-70207372D01*
X119089999Y-70147844D01*
X119090177Y-70144521D01*
X119090355Y-70144530D01*
X119090356Y-70144525D01*
X119090459Y-70144536D01*
X119090904Y-70144559D01*
X119096958Y-70108931D01*
X119124878Y-70029137D01*
X119145062Y-69850002D01*
X119145062Y-69849997D01*
X119124878Y-69670861D01*
X119124877Y-69670857D01*
X119096958Y-69591068D01*
X119090000Y-69550114D01*
X119090000Y-68649885D01*
X119096958Y-68608931D01*
X119124878Y-68529137D01*
X119145062Y-68350002D01*
X119145062Y-68349997D01*
X119124878Y-68170861D01*
X119124877Y-68170857D01*
X119096958Y-68091068D01*
X119090000Y-68050114D01*
X119090000Y-67843474D01*
X121676662Y-67843474D01*
X121680506Y-67873649D01*
X121681500Y-67889317D01*
X121681500Y-68376743D01*
X121696925Y-68528439D01*
X121757837Y-68722579D01*
X121757844Y-68722594D01*
X121856589Y-68900499D01*
X121856592Y-68900504D01*
X121989132Y-69054893D01*
X121989134Y-69054895D01*
X122150037Y-69179445D01*
X122150038Y-69179445D01*
X122150042Y-69179448D01*
X122332729Y-69269060D01*
X122529715Y-69320063D01*
X122732936Y-69330369D01*
X122934071Y-69299556D01*
X123124887Y-69228886D01*
X123128989Y-69226329D01*
X123196291Y-69207573D01*
X123249187Y-69220232D01*
X123348729Y-69269060D01*
X123545715Y-69320063D01*
X123748936Y-69330369D01*
X123950071Y-69299556D01*
X124140887Y-69228886D01*
X124313571Y-69121252D01*
X124461053Y-68981059D01*
X124577295Y-68814049D01*
X124657540Y-68627058D01*
X124698500Y-68427741D01*
X124698500Y-66844758D01*
X124698858Y-66835342D01*
X124703337Y-66776527D01*
X124699493Y-66746339D01*
X124698500Y-66730675D01*
X124698500Y-66322499D01*
X124698659Y-66316219D01*
X124700728Y-66275413D01*
X124702369Y-66243064D01*
X124699930Y-66227142D01*
X124698500Y-66208366D01*
X124698500Y-65560499D01*
X124698659Y-65554219D01*
X124702369Y-65481064D01*
X124699930Y-65465142D01*
X124698500Y-65446366D01*
X124698500Y-65052499D01*
X124698659Y-65046219D01*
X124700875Y-65002514D01*
X124702369Y-64973064D01*
X124699930Y-64957142D01*
X124698500Y-64938366D01*
X124698500Y-63542758D01*
X124698858Y-63533342D01*
X124703337Y-63474524D01*
X124703115Y-63472780D01*
X124702279Y-63450831D01*
X124702369Y-63449064D01*
X124691278Y-63376669D01*
X124690484Y-63370436D01*
X124683074Y-63297565D01*
X124683074Y-63297562D01*
X124682544Y-63295874D01*
X124677852Y-63274420D01*
X124677630Y-63272672D01*
X124677059Y-63271001D01*
X124671821Y-63249657D01*
X124671556Y-63247931D01*
X124671556Y-63247929D01*
X124646105Y-63179209D01*
X124644102Y-63173350D01*
X124622159Y-63103412D01*
X124621307Y-63101877D01*
X124612383Y-63081788D01*
X124611816Y-63080128D01*
X124610923Y-63078611D01*
X124601494Y-63058755D01*
X124600887Y-63057115D01*
X124600883Y-63057107D01*
X124562139Y-62994948D01*
X124558952Y-62989534D01*
X124523411Y-62925501D01*
X124523410Y-62925499D01*
X124523409Y-62925498D01*
X124522256Y-62924155D01*
X124509478Y-62906282D01*
X124508750Y-62905046D01*
X124508590Y-62904773D01*
X124508589Y-62904772D01*
X124508588Y-62904770D01*
X124508586Y-62904767D01*
X124507412Y-62903468D01*
X124494187Y-62885929D01*
X124493251Y-62884428D01*
X124442788Y-62831341D01*
X124438577Y-62826680D01*
X124390873Y-62771112D01*
X124390868Y-62771107D01*
X124390866Y-62771105D01*
X124389467Y-62770022D01*
X124373367Y-62755102D01*
X124372181Y-62753789D01*
X124372175Y-62753784D01*
X124370760Y-62752745D01*
X124354277Y-62738228D01*
X124353063Y-62736951D01*
X124353062Y-62736950D01*
X124353059Y-62736947D01*
X124292936Y-62695100D01*
X124287874Y-62691382D01*
X124229957Y-62646551D01*
X124228361Y-62645768D01*
X124209586Y-62634393D01*
X124208170Y-62633353D01*
X124208168Y-62633352D01*
X124208167Y-62633351D01*
X124208163Y-62633349D01*
X124208161Y-62633348D01*
X124206557Y-62632611D01*
X124187501Y-62621716D01*
X124186049Y-62620705D01*
X124118738Y-62591818D01*
X124113039Y-62589200D01*
X124047270Y-62556939D01*
X124047261Y-62556936D01*
X124045546Y-62556492D01*
X124024876Y-62549133D01*
X124023269Y-62548395D01*
X124021534Y-62547992D01*
X124000691Y-62541160D01*
X123999062Y-62540461D01*
X123999063Y-62540461D01*
X123991570Y-62538921D01*
X123927306Y-62525714D01*
X123921196Y-62524297D01*
X123885002Y-62514926D01*
X123850285Y-62505937D01*
X123850282Y-62505936D01*
X123850273Y-62505935D01*
X123848510Y-62505846D01*
X123826787Y-62502799D01*
X123825056Y-62502397D01*
X123825050Y-62502396D01*
X123823256Y-62502351D01*
X123801482Y-62499857D01*
X123799748Y-62499500D01*
X123799741Y-62499500D01*
X123726500Y-62499500D01*
X123720221Y-62499341D01*
X123647064Y-62495631D01*
X123647057Y-62495631D01*
X123645305Y-62495900D01*
X123623421Y-62497288D01*
X123621640Y-62497243D01*
X123621631Y-62497243D01*
X123619895Y-62497555D01*
X123598021Y-62499500D01*
X122710500Y-62499500D01*
X122704221Y-62499341D01*
X122662851Y-62497243D01*
X122631065Y-62495631D01*
X122631058Y-62495631D01*
X122558676Y-62506719D01*
X122552448Y-62507513D01*
X122479566Y-62514925D01*
X122479557Y-62514927D01*
X122464187Y-62519749D01*
X122445858Y-62524003D01*
X122429929Y-62526444D01*
X122429926Y-62526445D01*
X122361245Y-62551880D01*
X122355305Y-62553911D01*
X122285412Y-62575840D01*
X122271322Y-62583661D01*
X122254220Y-62591518D01*
X122239118Y-62597111D01*
X122239108Y-62597116D01*
X122176959Y-62635854D01*
X122171546Y-62639040D01*
X122107506Y-62674585D01*
X122107499Y-62674590D01*
X122095278Y-62685081D01*
X122080114Y-62696216D01*
X122066430Y-62704746D01*
X122066427Y-62704749D01*
X122013338Y-62755213D01*
X122008679Y-62759422D01*
X121953109Y-62807129D01*
X121953102Y-62807136D01*
X121943243Y-62819872D01*
X121930631Y-62833832D01*
X121918949Y-62844938D01*
X121918948Y-62844939D01*
X121877111Y-62905046D01*
X121873396Y-62910106D01*
X121828550Y-62968043D01*
X121821452Y-62982513D01*
X121811907Y-62998728D01*
X121802706Y-63011948D01*
X121802705Y-63011949D01*
X121773818Y-63079262D01*
X121771197Y-63084965D01*
X121738939Y-63150729D01*
X121738938Y-63150733D01*
X121734901Y-63166324D01*
X121728815Y-63184129D01*
X121722461Y-63198937D01*
X121707716Y-63270687D01*
X121706296Y-63276805D01*
X121687936Y-63347716D01*
X121687119Y-63363811D01*
X121684743Y-63382474D01*
X121681500Y-63398260D01*
X121681500Y-63471499D01*
X121681341Y-63477779D01*
X121677631Y-63550935D01*
X121677631Y-63550936D01*
X121680070Y-63566857D01*
X121681500Y-63585633D01*
X121681500Y-64473240D01*
X121681142Y-64482656D01*
X121676662Y-64541474D01*
X121680506Y-64571649D01*
X121681500Y-64587317D01*
X121681500Y-64995499D01*
X121681341Y-65001779D01*
X121677631Y-65074935D01*
X121677631Y-65074936D01*
X121680070Y-65090857D01*
X121681500Y-65109633D01*
X121681500Y-65503499D01*
X121681341Y-65509779D01*
X121677631Y-65582935D01*
X121677631Y-65582936D01*
X121680070Y-65598857D01*
X121681500Y-65617633D01*
X121681500Y-66265499D01*
X121681341Y-66271779D01*
X121677631Y-66344935D01*
X121677631Y-66344936D01*
X121680070Y-66360857D01*
X121681500Y-66379633D01*
X121681500Y-67775240D01*
X121681142Y-67784656D01*
X121676662Y-67843474D01*
X119090000Y-67843474D01*
X119090000Y-67149885D01*
X119096958Y-67108931D01*
X119124878Y-67029137D01*
X119145062Y-66850002D01*
X119145062Y-66849997D01*
X119124878Y-66670861D01*
X119124877Y-66670857D01*
X119096958Y-66591068D01*
X119090904Y-66555440D01*
X119090459Y-66555463D01*
X119090356Y-66555475D01*
X119090355Y-66555469D01*
X119090177Y-66555479D01*
X119089999Y-66552155D01*
X119083598Y-66492627D01*
X119083596Y-66492620D01*
X119033354Y-66357913D01*
X119033350Y-66357906D01*
X118947190Y-66242812D01*
X118947187Y-66242809D01*
X118832093Y-66156649D01*
X118832086Y-66156645D01*
X118697379Y-66106403D01*
X118697372Y-66106401D01*
X118637844Y-66100000D01*
X118634521Y-66099823D01*
X118634530Y-66099644D01*
X118634525Y-66099644D01*
X118634536Y-66099540D01*
X118634559Y-66099095D01*
X118598932Y-66093042D01*
X118519142Y-66065122D01*
X118519138Y-66065121D01*
X118340003Y-66044938D01*
X118339997Y-66044938D01*
X118160861Y-66065121D01*
X118160857Y-66065122D01*
X118081068Y-66093042D01*
X118040114Y-66100000D01*
X117840000Y-66100000D01*
X117840000Y-70600000D01*
X117340000Y-70600000D01*
X117340000Y-66100000D01*
X117139886Y-66100000D01*
X117098932Y-66093042D01*
X117019142Y-66065122D01*
X117019138Y-66065121D01*
X116840003Y-66044938D01*
X116839997Y-66044938D01*
X116660861Y-66065121D01*
X116660857Y-66065122D01*
X116581068Y-66093042D01*
X116545440Y-66099095D01*
X116545463Y-66099540D01*
X116545475Y-66099644D01*
X116545469Y-66099644D01*
X116545479Y-66099823D01*
X116542155Y-66100000D01*
X116482627Y-66106401D01*
X116482620Y-66106403D01*
X116347913Y-66156645D01*
X116347906Y-66156649D01*
X116232812Y-66242809D01*
X116232809Y-66242812D01*
X116146649Y-66357906D01*
X116146645Y-66357913D01*
X116096403Y-66492620D01*
X116096401Y-66492627D01*
X116090000Y-66552155D01*
X116089823Y-66555479D01*
X116089644Y-66555469D01*
X116089644Y-66555475D01*
X116089540Y-66555463D01*
X116089095Y-66555440D01*
X116083042Y-66591068D01*
X116055122Y-66670857D01*
X116055121Y-66670861D01*
X116034938Y-66849997D01*
X116034938Y-66850002D01*
X116055121Y-67029137D01*
X116083042Y-67108931D01*
X116090000Y-67149885D01*
X116090000Y-68050114D01*
X116083042Y-68091068D01*
X116055122Y-68170857D01*
X116055121Y-68170861D01*
X116034938Y-68349997D01*
X116034938Y-68350002D01*
X116055121Y-68529137D01*
X116083042Y-68608931D01*
X116090000Y-68649885D01*
X116090000Y-69550114D01*
X116083042Y-69591068D01*
X116055122Y-69670857D01*
X116055121Y-69670861D01*
X116034938Y-69849997D01*
X116034938Y-69850002D01*
X113147500Y-69850002D01*
X113147500Y-65588452D01*
X113167185Y-65521413D01*
X113183819Y-65500771D01*
X113506771Y-65177819D01*
X113568094Y-65144334D01*
X113594452Y-65141500D01*
X113850252Y-65141500D01*
X113917291Y-65161185D01*
X113942400Y-65182526D01*
X113948126Y-65188885D01*
X113948130Y-65188889D01*
X114101265Y-65300148D01*
X114101270Y-65300151D01*
X114274192Y-65377142D01*
X114274197Y-65377144D01*
X114459354Y-65416500D01*
X114459355Y-65416500D01*
X114648644Y-65416500D01*
X114648646Y-65416500D01*
X114833803Y-65377144D01*
X115006730Y-65300151D01*
X115159871Y-65188888D01*
X115286533Y-65048216D01*
X115381179Y-64884284D01*
X115439674Y-64704256D01*
X115459460Y-64516000D01*
X115439674Y-64327744D01*
X115381179Y-64147716D01*
X115286533Y-63983784D01*
X115159871Y-63843112D01*
X115159870Y-63843111D01*
X115006734Y-63731851D01*
X115006729Y-63731848D01*
X114833807Y-63654857D01*
X114833802Y-63654855D01*
X114688001Y-63623865D01*
X114648646Y-63615500D01*
X114459354Y-63615500D01*
X114426897Y-63622398D01*
X114274197Y-63654855D01*
X114274192Y-63654857D01*
X114101270Y-63731848D01*
X114101265Y-63731851D01*
X113948130Y-63843110D01*
X113948126Y-63843114D01*
X113942400Y-63849474D01*
X113882913Y-63886121D01*
X113850252Y-63890500D01*
X113366743Y-63890500D01*
X113351122Y-63888775D01*
X113351095Y-63889061D01*
X113343333Y-63888326D01*
X113276113Y-63890439D01*
X113272219Y-63890500D01*
X113244650Y-63890500D01*
X113240673Y-63891002D01*
X113229042Y-63891917D01*
X113185374Y-63893289D01*
X113185368Y-63893290D01*
X113166126Y-63898880D01*
X113147087Y-63902823D01*
X113127217Y-63905334D01*
X113127203Y-63905337D01*
X113086598Y-63921413D01*
X113075554Y-63925194D01*
X113033614Y-63937379D01*
X113033610Y-63937381D01*
X113016366Y-63947579D01*
X112998905Y-63956133D01*
X112980274Y-63963510D01*
X112980262Y-63963517D01*
X112944933Y-63989185D01*
X112935173Y-63995596D01*
X112897580Y-64017829D01*
X112883414Y-64031995D01*
X112868624Y-64044627D01*
X112852414Y-64056404D01*
X112852411Y-64056407D01*
X112824573Y-64090058D01*
X112816711Y-64098697D01*
X112138208Y-64777199D01*
X112125951Y-64787020D01*
X112126134Y-64787241D01*
X112120122Y-64792214D01*
X112074098Y-64841223D01*
X112071391Y-64844016D01*
X112051889Y-64863517D01*
X112051875Y-64863534D01*
X112049407Y-64866715D01*
X112041843Y-64875570D01*
X112011937Y-64907418D01*
X112011936Y-64907420D01*
X112002284Y-64924976D01*
X111991610Y-64941226D01*
X111979329Y-64957061D01*
X111979324Y-64957068D01*
X111961975Y-64997158D01*
X111956838Y-65007644D01*
X111935803Y-65045906D01*
X111930822Y-65065307D01*
X111924521Y-65083710D01*
X111916562Y-65102102D01*
X111916561Y-65102105D01*
X111909728Y-65145243D01*
X111907360Y-65156674D01*
X111896501Y-65198971D01*
X111896500Y-65198982D01*
X111896500Y-65219016D01*
X111894973Y-65238415D01*
X111891840Y-65258194D01*
X111891840Y-65258195D01*
X111895950Y-65301674D01*
X111896500Y-65313343D01*
X111896500Y-71799255D01*
X111894775Y-71814872D01*
X111895061Y-71814899D01*
X111894326Y-71822665D01*
X111896439Y-71889872D01*
X111896500Y-71893767D01*
X111896500Y-71921357D01*
X111897003Y-71925335D01*
X111897918Y-71936967D01*
X111899290Y-71980624D01*
X111899291Y-71980627D01*
X111904880Y-71999867D01*
X111908824Y-72018911D01*
X111911336Y-72038792D01*
X111927414Y-72079403D01*
X111931197Y-72090452D01*
X111943381Y-72132388D01*
X111953580Y-72149634D01*
X111962138Y-72167103D01*
X111969514Y-72185732D01*
X111995181Y-72221060D01*
X112001593Y-72230821D01*
X112023828Y-72268417D01*
X112023833Y-72268424D01*
X112037990Y-72282580D01*
X112050628Y-72297376D01*
X112062405Y-72313586D01*
X112062406Y-72313587D01*
X112096057Y-72341425D01*
X112104698Y-72349288D01*
X112187729Y-72432319D01*
X112221214Y-72493642D01*
X112216230Y-72563334D01*
X112174358Y-72619267D01*
X112108894Y-72643684D01*
X112100048Y-72644000D01*
X100200000Y-72644000D01*
X100132961Y-72624315D01*
X100087206Y-72571511D01*
X100076000Y-72520000D01*
X100076000Y-68326000D01*
X100498341Y-68326000D01*
X100518936Y-68561403D01*
X100518938Y-68561413D01*
X100580094Y-68789655D01*
X100580096Y-68789659D01*
X100580097Y-68789663D01*
X100669347Y-68981059D01*
X100679965Y-69003830D01*
X100679967Y-69003834D01*
X100715721Y-69054895D01*
X100815501Y-69197396D01*
X100815506Y-69197402D01*
X100937430Y-69319326D01*
X100970915Y-69380649D01*
X100965931Y-69450341D01*
X100924059Y-69506274D01*
X100893083Y-69523189D01*
X100761669Y-69572203D01*
X100761664Y-69572206D01*
X100646455Y-69658452D01*
X100646452Y-69658455D01*
X100560206Y-69773664D01*
X100560202Y-69773671D01*
X100509908Y-69908517D01*
X100503501Y-69968116D01*
X100503501Y-69968123D01*
X100503500Y-69968135D01*
X100503500Y-71763870D01*
X100503501Y-71763876D01*
X100509908Y-71823483D01*
X100560202Y-71958328D01*
X100560206Y-71958335D01*
X100646452Y-72073544D01*
X100646455Y-72073547D01*
X100761664Y-72159793D01*
X100761671Y-72159797D01*
X100896517Y-72210091D01*
X100896516Y-72210091D01*
X100903444Y-72210835D01*
X100956127Y-72216500D01*
X102751872Y-72216499D01*
X102811483Y-72210091D01*
X102946331Y-72159796D01*
X103061546Y-72073546D01*
X103147796Y-71958331D01*
X103198091Y-71823483D01*
X103204500Y-71763873D01*
X103204499Y-69968128D01*
X103198091Y-69908517D01*
X103176266Y-69850002D01*
X103147797Y-69773671D01*
X103147793Y-69773664D01*
X103061547Y-69658455D01*
X103061544Y-69658452D01*
X102946335Y-69572206D01*
X102946328Y-69572202D01*
X102814917Y-69523189D01*
X102758983Y-69481318D01*
X102734566Y-69415853D01*
X102749418Y-69347580D01*
X102770563Y-69319332D01*
X102892495Y-69197401D01*
X103028035Y-69003830D01*
X103127903Y-68789663D01*
X103189063Y-68561408D01*
X103209659Y-68326000D01*
X103189063Y-68090592D01*
X103127903Y-67862337D01*
X103028035Y-67648171D01*
X102953345Y-67541501D01*
X102892494Y-67454597D01*
X102725402Y-67287506D01*
X102725395Y-67287501D01*
X102531834Y-67151967D01*
X102531830Y-67151965D01*
X102527369Y-67149885D01*
X102317663Y-67052097D01*
X102317659Y-67052096D01*
X102317655Y-67052094D01*
X102089413Y-66990938D01*
X102089403Y-66990936D01*
X101854001Y-66970341D01*
X101853999Y-66970341D01*
X101618596Y-66990936D01*
X101618586Y-66990938D01*
X101390344Y-67052094D01*
X101390335Y-67052098D01*
X101176171Y-67151964D01*
X101176169Y-67151965D01*
X100982597Y-67287505D01*
X100815505Y-67454597D01*
X100679965Y-67648169D01*
X100679964Y-67648171D01*
X100580098Y-67862335D01*
X100580094Y-67862344D01*
X100518938Y-68090586D01*
X100518936Y-68090596D01*
X100498341Y-68325999D01*
X100498341Y-68326000D01*
X100076000Y-68326000D01*
X100076000Y-61214000D01*
X100498341Y-61214000D01*
X100518936Y-61449403D01*
X100518938Y-61449413D01*
X100580094Y-61677655D01*
X100580096Y-61677659D01*
X100580097Y-61677663D01*
X100651787Y-61831402D01*
X100679965Y-61891830D01*
X100679967Y-61891834D01*
X100754655Y-61998498D01*
X100815505Y-62085401D01*
X100982599Y-62252495D01*
X101017156Y-62276692D01*
X101176165Y-62388032D01*
X101176167Y-62388033D01*
X101176170Y-62388035D01*
X101390337Y-62487903D01*
X101390343Y-62487904D01*
X101390344Y-62487905D01*
X101425195Y-62497243D01*
X101618592Y-62549063D01*
X101806918Y-62565539D01*
X101853999Y-62569659D01*
X101854000Y-62569659D01*
X101854001Y-62569659D01*
X101893234Y-62566226D01*
X102089408Y-62549063D01*
X102317663Y-62487903D01*
X102531830Y-62388035D01*
X102725401Y-62252495D01*
X102892495Y-62085401D01*
X103028035Y-61891830D01*
X103127903Y-61677663D01*
X103189063Y-61449408D01*
X103209659Y-61214000D01*
X103189063Y-60978592D01*
X103127903Y-60750337D01*
X103028035Y-60536171D01*
X103000266Y-60496513D01*
X102892496Y-60342600D01*
X102832065Y-60282169D01*
X102770567Y-60220671D01*
X102737084Y-60159351D01*
X102742068Y-60089659D01*
X102783939Y-60033725D01*
X102814915Y-60016810D01*
X102946331Y-59967796D01*
X103061546Y-59881546D01*
X103147796Y-59766331D01*
X103198091Y-59631483D01*
X103204500Y-59571873D01*
X103204499Y-57776128D01*
X103198091Y-57716517D01*
X103184247Y-57679400D01*
X103147797Y-57581671D01*
X103147793Y-57581664D01*
X103061547Y-57466455D01*
X103061544Y-57466452D01*
X102946335Y-57380206D01*
X102946328Y-57380202D01*
X102811482Y-57329908D01*
X102811483Y-57329908D01*
X102751883Y-57323501D01*
X102751881Y-57323500D01*
X102751873Y-57323500D01*
X102751864Y-57323500D01*
X100956129Y-57323500D01*
X100956123Y-57323501D01*
X100896516Y-57329908D01*
X100761671Y-57380202D01*
X100761664Y-57380206D01*
X100646455Y-57466452D01*
X100646452Y-57466455D01*
X100560206Y-57581664D01*
X100560202Y-57581671D01*
X100509908Y-57716517D01*
X100503585Y-57775337D01*
X100503501Y-57776123D01*
X100503500Y-57776135D01*
X100503500Y-59571870D01*
X100503501Y-59571876D01*
X100509908Y-59631483D01*
X100560202Y-59766328D01*
X100560206Y-59766335D01*
X100646452Y-59881544D01*
X100646455Y-59881547D01*
X100761664Y-59967793D01*
X100761671Y-59967797D01*
X100893081Y-60016810D01*
X100949015Y-60058681D01*
X100973432Y-60124145D01*
X100958580Y-60192418D01*
X100937430Y-60220673D01*
X100815503Y-60342600D01*
X100679965Y-60536169D01*
X100679964Y-60536171D01*
X100580098Y-60750335D01*
X100580094Y-60750344D01*
X100518938Y-60978586D01*
X100518936Y-60978596D01*
X100498341Y-61213999D01*
X100498341Y-61214000D01*
X100076000Y-61214000D01*
X100076000Y-57020000D01*
X100095685Y-56952961D01*
X100148489Y-56907206D01*
X100200000Y-56896000D01*
X113594901Y-56896000D01*
X113661940Y-56915685D01*
G37*
%TD.AperFunction*%
%TD*%
M02*
