%TF.GenerationSoftware,KiCad,Pcbnew,7.0.10*%
%TF.CreationDate,2024-02-14T05:56:45+09:00*%
%TF.ProjectId,drv8833,64727638-3833-4332-9e6b-696361645f70,rev?*%
%TF.SameCoordinates,Original*%
%TF.FileFunction,Legend,Top*%
%TF.FilePolarity,Positive*%
%FSLAX46Y46*%
G04 Gerber Fmt 4.6, Leading zero omitted, Abs format (unit mm)*
G04 Created by KiCad (PCBNEW 7.0.10) date 2024-02-14 05:56:45*
%MOMM*%
%LPD*%
G01*
G04 APERTURE LIST*
%ADD10C,0.150000*%
%ADD11C,0.120000*%
G04 APERTURE END LIST*
D10*
X104556112Y-67164009D02*
X104698969Y-67211628D01*
X104698969Y-67211628D02*
X104746588Y-67259247D01*
X104746588Y-67259247D02*
X104794207Y-67354485D01*
X104794207Y-67354485D02*
X104794207Y-67497342D01*
X104794207Y-67497342D02*
X104746588Y-67592580D01*
X104746588Y-67592580D02*
X104698969Y-67640200D01*
X104698969Y-67640200D02*
X104603731Y-67687819D01*
X104603731Y-67687819D02*
X104222779Y-67687819D01*
X104222779Y-67687819D02*
X104222779Y-66687819D01*
X104222779Y-66687819D02*
X104556112Y-66687819D01*
X104556112Y-66687819D02*
X104651350Y-66735438D01*
X104651350Y-66735438D02*
X104698969Y-66783057D01*
X104698969Y-66783057D02*
X104746588Y-66878295D01*
X104746588Y-66878295D02*
X104746588Y-66973533D01*
X104746588Y-66973533D02*
X104698969Y-67068771D01*
X104698969Y-67068771D02*
X104651350Y-67116390D01*
X104651350Y-67116390D02*
X104556112Y-67164009D01*
X104556112Y-67164009D02*
X104222779Y-67164009D01*
X105413255Y-66687819D02*
X105603731Y-66687819D01*
X105603731Y-66687819D02*
X105698969Y-66735438D01*
X105698969Y-66735438D02*
X105794207Y-66830676D01*
X105794207Y-66830676D02*
X105841826Y-67021152D01*
X105841826Y-67021152D02*
X105841826Y-67354485D01*
X105841826Y-67354485D02*
X105794207Y-67544961D01*
X105794207Y-67544961D02*
X105698969Y-67640200D01*
X105698969Y-67640200D02*
X105603731Y-67687819D01*
X105603731Y-67687819D02*
X105413255Y-67687819D01*
X105413255Y-67687819D02*
X105318017Y-67640200D01*
X105318017Y-67640200D02*
X105222779Y-67544961D01*
X105222779Y-67544961D02*
X105175160Y-67354485D01*
X105175160Y-67354485D02*
X105175160Y-67021152D01*
X105175160Y-67021152D02*
X105222779Y-66830676D01*
X105222779Y-66830676D02*
X105318017Y-66735438D01*
X105318017Y-66735438D02*
X105413255Y-66687819D01*
X106222779Y-66783057D02*
X106270398Y-66735438D01*
X106270398Y-66735438D02*
X106365636Y-66687819D01*
X106365636Y-66687819D02*
X106603731Y-66687819D01*
X106603731Y-66687819D02*
X106698969Y-66735438D01*
X106698969Y-66735438D02*
X106746588Y-66783057D01*
X106746588Y-66783057D02*
X106794207Y-66878295D01*
X106794207Y-66878295D02*
X106794207Y-66973533D01*
X106794207Y-66973533D02*
X106746588Y-67116390D01*
X106746588Y-67116390D02*
X106175160Y-67687819D01*
X106175160Y-67687819D02*
X106794207Y-67687819D01*
X125558779Y-63369819D02*
X125558779Y-62369819D01*
X125558779Y-62369819D02*
X125796874Y-62369819D01*
X125796874Y-62369819D02*
X125939731Y-62417438D01*
X125939731Y-62417438D02*
X126034969Y-62512676D01*
X126034969Y-62512676D02*
X126082588Y-62607914D01*
X126082588Y-62607914D02*
X126130207Y-62798390D01*
X126130207Y-62798390D02*
X126130207Y-62941247D01*
X126130207Y-62941247D02*
X126082588Y-63131723D01*
X126082588Y-63131723D02*
X126034969Y-63226961D01*
X126034969Y-63226961D02*
X125939731Y-63322200D01*
X125939731Y-63322200D02*
X125796874Y-63369819D01*
X125796874Y-63369819D02*
X125558779Y-63369819D01*
X127130207Y-63369819D02*
X126796874Y-62893628D01*
X126558779Y-63369819D02*
X126558779Y-62369819D01*
X126558779Y-62369819D02*
X126939731Y-62369819D01*
X126939731Y-62369819D02*
X127034969Y-62417438D01*
X127034969Y-62417438D02*
X127082588Y-62465057D01*
X127082588Y-62465057D02*
X127130207Y-62560295D01*
X127130207Y-62560295D02*
X127130207Y-62703152D01*
X127130207Y-62703152D02*
X127082588Y-62798390D01*
X127082588Y-62798390D02*
X127034969Y-62846009D01*
X127034969Y-62846009D02*
X126939731Y-62893628D01*
X126939731Y-62893628D02*
X126558779Y-62893628D01*
X127415922Y-62369819D02*
X127749255Y-63369819D01*
X127749255Y-63369819D02*
X128082588Y-62369819D01*
X128558779Y-62798390D02*
X128463541Y-62750771D01*
X128463541Y-62750771D02*
X128415922Y-62703152D01*
X128415922Y-62703152D02*
X128368303Y-62607914D01*
X128368303Y-62607914D02*
X128368303Y-62560295D01*
X128368303Y-62560295D02*
X128415922Y-62465057D01*
X128415922Y-62465057D02*
X128463541Y-62417438D01*
X128463541Y-62417438D02*
X128558779Y-62369819D01*
X128558779Y-62369819D02*
X128749255Y-62369819D01*
X128749255Y-62369819D02*
X128844493Y-62417438D01*
X128844493Y-62417438D02*
X128892112Y-62465057D01*
X128892112Y-62465057D02*
X128939731Y-62560295D01*
X128939731Y-62560295D02*
X128939731Y-62607914D01*
X128939731Y-62607914D02*
X128892112Y-62703152D01*
X128892112Y-62703152D02*
X128844493Y-62750771D01*
X128844493Y-62750771D02*
X128749255Y-62798390D01*
X128749255Y-62798390D02*
X128558779Y-62798390D01*
X128558779Y-62798390D02*
X128463541Y-62846009D01*
X128463541Y-62846009D02*
X128415922Y-62893628D01*
X128415922Y-62893628D02*
X128368303Y-62988866D01*
X128368303Y-62988866D02*
X128368303Y-63179342D01*
X128368303Y-63179342D02*
X128415922Y-63274580D01*
X128415922Y-63274580D02*
X128463541Y-63322200D01*
X128463541Y-63322200D02*
X128558779Y-63369819D01*
X128558779Y-63369819D02*
X128749255Y-63369819D01*
X128749255Y-63369819D02*
X128844493Y-63322200D01*
X128844493Y-63322200D02*
X128892112Y-63274580D01*
X128892112Y-63274580D02*
X128939731Y-63179342D01*
X128939731Y-63179342D02*
X128939731Y-62988866D01*
X128939731Y-62988866D02*
X128892112Y-62893628D01*
X128892112Y-62893628D02*
X128844493Y-62846009D01*
X128844493Y-62846009D02*
X128749255Y-62798390D01*
X129511160Y-62798390D02*
X129415922Y-62750771D01*
X129415922Y-62750771D02*
X129368303Y-62703152D01*
X129368303Y-62703152D02*
X129320684Y-62607914D01*
X129320684Y-62607914D02*
X129320684Y-62560295D01*
X129320684Y-62560295D02*
X129368303Y-62465057D01*
X129368303Y-62465057D02*
X129415922Y-62417438D01*
X129415922Y-62417438D02*
X129511160Y-62369819D01*
X129511160Y-62369819D02*
X129701636Y-62369819D01*
X129701636Y-62369819D02*
X129796874Y-62417438D01*
X129796874Y-62417438D02*
X129844493Y-62465057D01*
X129844493Y-62465057D02*
X129892112Y-62560295D01*
X129892112Y-62560295D02*
X129892112Y-62607914D01*
X129892112Y-62607914D02*
X129844493Y-62703152D01*
X129844493Y-62703152D02*
X129796874Y-62750771D01*
X129796874Y-62750771D02*
X129701636Y-62798390D01*
X129701636Y-62798390D02*
X129511160Y-62798390D01*
X129511160Y-62798390D02*
X129415922Y-62846009D01*
X129415922Y-62846009D02*
X129368303Y-62893628D01*
X129368303Y-62893628D02*
X129320684Y-62988866D01*
X129320684Y-62988866D02*
X129320684Y-63179342D01*
X129320684Y-63179342D02*
X129368303Y-63274580D01*
X129368303Y-63274580D02*
X129415922Y-63322200D01*
X129415922Y-63322200D02*
X129511160Y-63369819D01*
X129511160Y-63369819D02*
X129701636Y-63369819D01*
X129701636Y-63369819D02*
X129796874Y-63322200D01*
X129796874Y-63322200D02*
X129844493Y-63274580D01*
X129844493Y-63274580D02*
X129892112Y-63179342D01*
X129892112Y-63179342D02*
X129892112Y-62988866D01*
X129892112Y-62988866D02*
X129844493Y-62893628D01*
X129844493Y-62893628D02*
X129796874Y-62846009D01*
X129796874Y-62846009D02*
X129701636Y-62798390D01*
X130225446Y-62369819D02*
X130844493Y-62369819D01*
X130844493Y-62369819D02*
X130511160Y-62750771D01*
X130511160Y-62750771D02*
X130654017Y-62750771D01*
X130654017Y-62750771D02*
X130749255Y-62798390D01*
X130749255Y-62798390D02*
X130796874Y-62846009D01*
X130796874Y-62846009D02*
X130844493Y-62941247D01*
X130844493Y-62941247D02*
X130844493Y-63179342D01*
X130844493Y-63179342D02*
X130796874Y-63274580D01*
X130796874Y-63274580D02*
X130749255Y-63322200D01*
X130749255Y-63322200D02*
X130654017Y-63369819D01*
X130654017Y-63369819D02*
X130368303Y-63369819D01*
X130368303Y-63369819D02*
X130273065Y-63322200D01*
X130273065Y-63322200D02*
X130225446Y-63274580D01*
X131177827Y-62369819D02*
X131796874Y-62369819D01*
X131796874Y-62369819D02*
X131463541Y-62750771D01*
X131463541Y-62750771D02*
X131606398Y-62750771D01*
X131606398Y-62750771D02*
X131701636Y-62798390D01*
X131701636Y-62798390D02*
X131749255Y-62846009D01*
X131749255Y-62846009D02*
X131796874Y-62941247D01*
X131796874Y-62941247D02*
X131796874Y-63179342D01*
X131796874Y-63179342D02*
X131749255Y-63274580D01*
X131749255Y-63274580D02*
X131701636Y-63322200D01*
X131701636Y-63322200D02*
X131606398Y-63369819D01*
X131606398Y-63369819D02*
X131320684Y-63369819D01*
X131320684Y-63369819D02*
X131225446Y-63322200D01*
X131225446Y-63322200D02*
X131177827Y-63274580D01*
X104175160Y-59274104D02*
X104651350Y-59274104D01*
X104079922Y-59559819D02*
X104413255Y-58559819D01*
X104413255Y-58559819D02*
X104746588Y-59559819D01*
X105270398Y-58559819D02*
X105460874Y-58559819D01*
X105460874Y-58559819D02*
X105556112Y-58607438D01*
X105556112Y-58607438D02*
X105651350Y-58702676D01*
X105651350Y-58702676D02*
X105698969Y-58893152D01*
X105698969Y-58893152D02*
X105698969Y-59226485D01*
X105698969Y-59226485D02*
X105651350Y-59416961D01*
X105651350Y-59416961D02*
X105556112Y-59512200D01*
X105556112Y-59512200D02*
X105460874Y-59559819D01*
X105460874Y-59559819D02*
X105270398Y-59559819D01*
X105270398Y-59559819D02*
X105175160Y-59512200D01*
X105175160Y-59512200D02*
X105079922Y-59416961D01*
X105079922Y-59416961D02*
X105032303Y-59226485D01*
X105032303Y-59226485D02*
X105032303Y-58893152D01*
X105032303Y-58893152D02*
X105079922Y-58702676D01*
X105079922Y-58702676D02*
X105175160Y-58607438D01*
X105175160Y-58607438D02*
X105270398Y-58559819D01*
X106651350Y-59559819D02*
X106079922Y-59559819D01*
X106365636Y-59559819D02*
X106365636Y-58559819D01*
X106365636Y-58559819D02*
X106270398Y-58702676D01*
X106270398Y-58702676D02*
X106175160Y-58797914D01*
X106175160Y-58797914D02*
X106079922Y-58845533D01*
X117002112Y-60560009D02*
X117144969Y-60607628D01*
X117144969Y-60607628D02*
X117192588Y-60655247D01*
X117192588Y-60655247D02*
X117240207Y-60750485D01*
X117240207Y-60750485D02*
X117240207Y-60893342D01*
X117240207Y-60893342D02*
X117192588Y-60988580D01*
X117192588Y-60988580D02*
X117144969Y-61036200D01*
X117144969Y-61036200D02*
X117049731Y-61083819D01*
X117049731Y-61083819D02*
X116668779Y-61083819D01*
X116668779Y-61083819D02*
X116668779Y-60083819D01*
X116668779Y-60083819D02*
X117002112Y-60083819D01*
X117002112Y-60083819D02*
X117097350Y-60131438D01*
X117097350Y-60131438D02*
X117144969Y-60179057D01*
X117144969Y-60179057D02*
X117192588Y-60274295D01*
X117192588Y-60274295D02*
X117192588Y-60369533D01*
X117192588Y-60369533D02*
X117144969Y-60464771D01*
X117144969Y-60464771D02*
X117097350Y-60512390D01*
X117097350Y-60512390D02*
X117002112Y-60560009D01*
X117002112Y-60560009D02*
X116668779Y-60560009D01*
X117621160Y-60798104D02*
X118097350Y-60798104D01*
X117525922Y-61083819D02*
X117859255Y-60083819D01*
X117859255Y-60083819D02*
X118192588Y-61083819D01*
X118383065Y-60083819D02*
X118954493Y-60083819D01*
X118668779Y-61083819D02*
X118668779Y-60083819D01*
X119144970Y-60083819D02*
X119716398Y-60083819D01*
X119430684Y-61083819D02*
X119430684Y-60083819D01*
X120049732Y-60702866D02*
X120811637Y-60702866D01*
X120430684Y-61083819D02*
X120430684Y-60321914D01*
X104556112Y-71228009D02*
X104698969Y-71275628D01*
X104698969Y-71275628D02*
X104746588Y-71323247D01*
X104746588Y-71323247D02*
X104794207Y-71418485D01*
X104794207Y-71418485D02*
X104794207Y-71561342D01*
X104794207Y-71561342D02*
X104746588Y-71656580D01*
X104746588Y-71656580D02*
X104698969Y-71704200D01*
X104698969Y-71704200D02*
X104603731Y-71751819D01*
X104603731Y-71751819D02*
X104222779Y-71751819D01*
X104222779Y-71751819D02*
X104222779Y-70751819D01*
X104222779Y-70751819D02*
X104556112Y-70751819D01*
X104556112Y-70751819D02*
X104651350Y-70799438D01*
X104651350Y-70799438D02*
X104698969Y-70847057D01*
X104698969Y-70847057D02*
X104746588Y-70942295D01*
X104746588Y-70942295D02*
X104746588Y-71037533D01*
X104746588Y-71037533D02*
X104698969Y-71132771D01*
X104698969Y-71132771D02*
X104651350Y-71180390D01*
X104651350Y-71180390D02*
X104556112Y-71228009D01*
X104556112Y-71228009D02*
X104222779Y-71228009D01*
X105413255Y-70751819D02*
X105603731Y-70751819D01*
X105603731Y-70751819D02*
X105698969Y-70799438D01*
X105698969Y-70799438D02*
X105794207Y-70894676D01*
X105794207Y-70894676D02*
X105841826Y-71085152D01*
X105841826Y-71085152D02*
X105841826Y-71418485D01*
X105841826Y-71418485D02*
X105794207Y-71608961D01*
X105794207Y-71608961D02*
X105698969Y-71704200D01*
X105698969Y-71704200D02*
X105603731Y-71751819D01*
X105603731Y-71751819D02*
X105413255Y-71751819D01*
X105413255Y-71751819D02*
X105318017Y-71704200D01*
X105318017Y-71704200D02*
X105222779Y-71608961D01*
X105222779Y-71608961D02*
X105175160Y-71418485D01*
X105175160Y-71418485D02*
X105175160Y-71085152D01*
X105175160Y-71085152D02*
X105222779Y-70894676D01*
X105222779Y-70894676D02*
X105318017Y-70799438D01*
X105318017Y-70799438D02*
X105413255Y-70751819D01*
X106794207Y-71751819D02*
X106222779Y-71751819D01*
X106508493Y-71751819D02*
X106508493Y-70751819D01*
X106508493Y-70751819D02*
X106413255Y-70894676D01*
X106413255Y-70894676D02*
X106318017Y-70989914D01*
X106318017Y-70989914D02*
X106222779Y-71037533D01*
X110842588Y-59877438D02*
X110747350Y-59829819D01*
X110747350Y-59829819D02*
X110604493Y-59829819D01*
X110604493Y-59829819D02*
X110461636Y-59877438D01*
X110461636Y-59877438D02*
X110366398Y-59972676D01*
X110366398Y-59972676D02*
X110318779Y-60067914D01*
X110318779Y-60067914D02*
X110271160Y-60258390D01*
X110271160Y-60258390D02*
X110271160Y-60401247D01*
X110271160Y-60401247D02*
X110318779Y-60591723D01*
X110318779Y-60591723D02*
X110366398Y-60686961D01*
X110366398Y-60686961D02*
X110461636Y-60782200D01*
X110461636Y-60782200D02*
X110604493Y-60829819D01*
X110604493Y-60829819D02*
X110699731Y-60829819D01*
X110699731Y-60829819D02*
X110842588Y-60782200D01*
X110842588Y-60782200D02*
X110890207Y-60734580D01*
X110890207Y-60734580D02*
X110890207Y-60401247D01*
X110890207Y-60401247D02*
X110699731Y-60401247D01*
X111318779Y-60829819D02*
X111318779Y-59829819D01*
X111318779Y-59829819D02*
X111890207Y-60829819D01*
X111890207Y-60829819D02*
X111890207Y-59829819D01*
X112366398Y-60829819D02*
X112366398Y-59829819D01*
X112366398Y-59829819D02*
X112604493Y-59829819D01*
X112604493Y-59829819D02*
X112747350Y-59877438D01*
X112747350Y-59877438D02*
X112842588Y-59972676D01*
X112842588Y-59972676D02*
X112890207Y-60067914D01*
X112890207Y-60067914D02*
X112937826Y-60258390D01*
X112937826Y-60258390D02*
X112937826Y-60401247D01*
X112937826Y-60401247D02*
X112890207Y-60591723D01*
X112890207Y-60591723D02*
X112842588Y-60686961D01*
X112842588Y-60686961D02*
X112747350Y-60782200D01*
X112747350Y-60782200D02*
X112604493Y-60829819D01*
X112604493Y-60829819D02*
X112366398Y-60829819D01*
X103921160Y-62576104D02*
X104397350Y-62576104D01*
X103825922Y-62861819D02*
X104159255Y-61861819D01*
X104159255Y-61861819D02*
X104492588Y-62861819D01*
X105016398Y-61861819D02*
X105206874Y-61861819D01*
X105206874Y-61861819D02*
X105302112Y-61909438D01*
X105302112Y-61909438D02*
X105397350Y-62004676D01*
X105397350Y-62004676D02*
X105444969Y-62195152D01*
X105444969Y-62195152D02*
X105444969Y-62528485D01*
X105444969Y-62528485D02*
X105397350Y-62718961D01*
X105397350Y-62718961D02*
X105302112Y-62814200D01*
X105302112Y-62814200D02*
X105206874Y-62861819D01*
X105206874Y-62861819D02*
X105016398Y-62861819D01*
X105016398Y-62861819D02*
X104921160Y-62814200D01*
X104921160Y-62814200D02*
X104825922Y-62718961D01*
X104825922Y-62718961D02*
X104778303Y-62528485D01*
X104778303Y-62528485D02*
X104778303Y-62195152D01*
X104778303Y-62195152D02*
X104825922Y-62004676D01*
X104825922Y-62004676D02*
X104921160Y-61909438D01*
X104921160Y-61909438D02*
X105016398Y-61861819D01*
X105825922Y-61957057D02*
X105873541Y-61909438D01*
X105873541Y-61909438D02*
X105968779Y-61861819D01*
X105968779Y-61861819D02*
X106206874Y-61861819D01*
X106206874Y-61861819D02*
X106302112Y-61909438D01*
X106302112Y-61909438D02*
X106349731Y-61957057D01*
X106349731Y-61957057D02*
X106397350Y-62052295D01*
X106397350Y-62052295D02*
X106397350Y-62147533D01*
X106397350Y-62147533D02*
X106349731Y-62290390D01*
X106349731Y-62290390D02*
X105778303Y-62861819D01*
X105778303Y-62861819D02*
X106397350Y-62861819D01*
X113832819Y-62396666D02*
X113356628Y-62729999D01*
X113832819Y-62968094D02*
X112832819Y-62968094D01*
X112832819Y-62968094D02*
X112832819Y-62587142D01*
X112832819Y-62587142D02*
X112880438Y-62491904D01*
X112880438Y-62491904D02*
X112928057Y-62444285D01*
X112928057Y-62444285D02*
X113023295Y-62396666D01*
X113023295Y-62396666D02*
X113166152Y-62396666D01*
X113166152Y-62396666D02*
X113261390Y-62444285D01*
X113261390Y-62444285D02*
X113309009Y-62491904D01*
X113309009Y-62491904D02*
X113356628Y-62587142D01*
X113356628Y-62587142D02*
X113356628Y-62968094D01*
X113832819Y-61444285D02*
X113832819Y-62015713D01*
X113832819Y-61729999D02*
X112832819Y-61729999D01*
X112832819Y-61729999D02*
X112975676Y-61825237D01*
X112975676Y-61825237D02*
X113070914Y-61920475D01*
X113070914Y-61920475D02*
X113118533Y-62015713D01*
X131746666Y-57874819D02*
X131746666Y-58589104D01*
X131746666Y-58589104D02*
X131699047Y-58731961D01*
X131699047Y-58731961D02*
X131603809Y-58827200D01*
X131603809Y-58827200D02*
X131460952Y-58874819D01*
X131460952Y-58874819D02*
X131365714Y-58874819D01*
X132746666Y-58874819D02*
X132175238Y-58874819D01*
X132460952Y-58874819D02*
X132460952Y-57874819D01*
X132460952Y-57874819D02*
X132365714Y-58017676D01*
X132365714Y-58017676D02*
X132270476Y-58112914D01*
X132270476Y-58112914D02*
X132175238Y-58160533D01*
X109561333Y-73004819D02*
X109228000Y-72528628D01*
X108989905Y-73004819D02*
X108989905Y-72004819D01*
X108989905Y-72004819D02*
X109370857Y-72004819D01*
X109370857Y-72004819D02*
X109466095Y-72052438D01*
X109466095Y-72052438D02*
X109513714Y-72100057D01*
X109513714Y-72100057D02*
X109561333Y-72195295D01*
X109561333Y-72195295D02*
X109561333Y-72338152D01*
X109561333Y-72338152D02*
X109513714Y-72433390D01*
X109513714Y-72433390D02*
X109466095Y-72481009D01*
X109466095Y-72481009D02*
X109370857Y-72528628D01*
X109370857Y-72528628D02*
X108989905Y-72528628D01*
X109942286Y-72100057D02*
X109989905Y-72052438D01*
X109989905Y-72052438D02*
X110085143Y-72004819D01*
X110085143Y-72004819D02*
X110323238Y-72004819D01*
X110323238Y-72004819D02*
X110418476Y-72052438D01*
X110418476Y-72052438D02*
X110466095Y-72100057D01*
X110466095Y-72100057D02*
X110513714Y-72195295D01*
X110513714Y-72195295D02*
X110513714Y-72290533D01*
X110513714Y-72290533D02*
X110466095Y-72433390D01*
X110466095Y-72433390D02*
X109894667Y-73004819D01*
X109894667Y-73004819D02*
X110513714Y-73004819D01*
X103806666Y-72098819D02*
X103806666Y-72813104D01*
X103806666Y-72813104D02*
X103759047Y-72955961D01*
X103759047Y-72955961D02*
X103663809Y-73051200D01*
X103663809Y-73051200D02*
X103520952Y-73098819D01*
X103520952Y-73098819D02*
X103425714Y-73098819D01*
X104187619Y-72098819D02*
X104806666Y-72098819D01*
X104806666Y-72098819D02*
X104473333Y-72479771D01*
X104473333Y-72479771D02*
X104616190Y-72479771D01*
X104616190Y-72479771D02*
X104711428Y-72527390D01*
X104711428Y-72527390D02*
X104759047Y-72575009D01*
X104759047Y-72575009D02*
X104806666Y-72670247D01*
X104806666Y-72670247D02*
X104806666Y-72908342D01*
X104806666Y-72908342D02*
X104759047Y-73003580D01*
X104759047Y-73003580D02*
X104711428Y-73051200D01*
X104711428Y-73051200D02*
X104616190Y-73098819D01*
X104616190Y-73098819D02*
X104330476Y-73098819D01*
X104330476Y-73098819D02*
X104235238Y-73051200D01*
X104235238Y-73051200D02*
X104187619Y-73003580D01*
X124801333Y-58619580D02*
X124753714Y-58667200D01*
X124753714Y-58667200D02*
X124610857Y-58714819D01*
X124610857Y-58714819D02*
X124515619Y-58714819D01*
X124515619Y-58714819D02*
X124372762Y-58667200D01*
X124372762Y-58667200D02*
X124277524Y-58571961D01*
X124277524Y-58571961D02*
X124229905Y-58476723D01*
X124229905Y-58476723D02*
X124182286Y-58286247D01*
X124182286Y-58286247D02*
X124182286Y-58143390D01*
X124182286Y-58143390D02*
X124229905Y-57952914D01*
X124229905Y-57952914D02*
X124277524Y-57857676D01*
X124277524Y-57857676D02*
X124372762Y-57762438D01*
X124372762Y-57762438D02*
X124515619Y-57714819D01*
X124515619Y-57714819D02*
X124610857Y-57714819D01*
X124610857Y-57714819D02*
X124753714Y-57762438D01*
X124753714Y-57762438D02*
X124801333Y-57810057D01*
X125182286Y-57810057D02*
X125229905Y-57762438D01*
X125229905Y-57762438D02*
X125325143Y-57714819D01*
X125325143Y-57714819D02*
X125563238Y-57714819D01*
X125563238Y-57714819D02*
X125658476Y-57762438D01*
X125658476Y-57762438D02*
X125706095Y-57810057D01*
X125706095Y-57810057D02*
X125753714Y-57905295D01*
X125753714Y-57905295D02*
X125753714Y-58000533D01*
X125753714Y-58000533D02*
X125706095Y-58143390D01*
X125706095Y-58143390D02*
X125134667Y-58714819D01*
X125134667Y-58714819D02*
X125753714Y-58714819D01*
X116828095Y-64354819D02*
X116828095Y-65164342D01*
X116828095Y-65164342D02*
X116875714Y-65259580D01*
X116875714Y-65259580D02*
X116923333Y-65307200D01*
X116923333Y-65307200D02*
X117018571Y-65354819D01*
X117018571Y-65354819D02*
X117209047Y-65354819D01*
X117209047Y-65354819D02*
X117304285Y-65307200D01*
X117304285Y-65307200D02*
X117351904Y-65259580D01*
X117351904Y-65259580D02*
X117399523Y-65164342D01*
X117399523Y-65164342D02*
X117399523Y-64354819D01*
X118399523Y-65354819D02*
X117828095Y-65354819D01*
X118113809Y-65354819D02*
X118113809Y-64354819D01*
X118113809Y-64354819D02*
X118018571Y-64497676D01*
X118018571Y-64497676D02*
X117923333Y-64592914D01*
X117923333Y-64592914D02*
X117828095Y-64640533D01*
X104314666Y-56350819D02*
X104314666Y-57065104D01*
X104314666Y-57065104D02*
X104267047Y-57207961D01*
X104267047Y-57207961D02*
X104171809Y-57303200D01*
X104171809Y-57303200D02*
X104028952Y-57350819D01*
X104028952Y-57350819D02*
X103933714Y-57350819D01*
X104743238Y-56446057D02*
X104790857Y-56398438D01*
X104790857Y-56398438D02*
X104886095Y-56350819D01*
X104886095Y-56350819D02*
X105124190Y-56350819D01*
X105124190Y-56350819D02*
X105219428Y-56398438D01*
X105219428Y-56398438D02*
X105267047Y-56446057D01*
X105267047Y-56446057D02*
X105314666Y-56541295D01*
X105314666Y-56541295D02*
X105314666Y-56636533D01*
X105314666Y-56636533D02*
X105267047Y-56779390D01*
X105267047Y-56779390D02*
X104695619Y-57350819D01*
X104695619Y-57350819D02*
X105314666Y-57350819D01*
X119336019Y-57762733D02*
X120050304Y-57762733D01*
X120050304Y-57762733D02*
X120193161Y-57810352D01*
X120193161Y-57810352D02*
X120288400Y-57905590D01*
X120288400Y-57905590D02*
X120336019Y-58048447D01*
X120336019Y-58048447D02*
X120336019Y-58143685D01*
X119669352Y-56857971D02*
X120336019Y-56857971D01*
X119288400Y-57096066D02*
X120002685Y-57334161D01*
X120002685Y-57334161D02*
X120002685Y-56715114D01*
X124565580Y-69521666D02*
X124613200Y-69569285D01*
X124613200Y-69569285D02*
X124660819Y-69712142D01*
X124660819Y-69712142D02*
X124660819Y-69807380D01*
X124660819Y-69807380D02*
X124613200Y-69950237D01*
X124613200Y-69950237D02*
X124517961Y-70045475D01*
X124517961Y-70045475D02*
X124422723Y-70093094D01*
X124422723Y-70093094D02*
X124232247Y-70140713D01*
X124232247Y-70140713D02*
X124089390Y-70140713D01*
X124089390Y-70140713D02*
X123898914Y-70093094D01*
X123898914Y-70093094D02*
X123803676Y-70045475D01*
X123803676Y-70045475D02*
X123708438Y-69950237D01*
X123708438Y-69950237D02*
X123660819Y-69807380D01*
X123660819Y-69807380D02*
X123660819Y-69712142D01*
X123660819Y-69712142D02*
X123708438Y-69569285D01*
X123708438Y-69569285D02*
X123756057Y-69521666D01*
X123660819Y-69188332D02*
X123660819Y-68569285D01*
X123660819Y-68569285D02*
X124041771Y-68902618D01*
X124041771Y-68902618D02*
X124041771Y-68759761D01*
X124041771Y-68759761D02*
X124089390Y-68664523D01*
X124089390Y-68664523D02*
X124137009Y-68616904D01*
X124137009Y-68616904D02*
X124232247Y-68569285D01*
X124232247Y-68569285D02*
X124470342Y-68569285D01*
X124470342Y-68569285D02*
X124565580Y-68616904D01*
X124565580Y-68616904D02*
X124613200Y-68664523D01*
X124613200Y-68664523D02*
X124660819Y-68759761D01*
X124660819Y-68759761D02*
X124660819Y-69045475D01*
X124660819Y-69045475D02*
X124613200Y-69140713D01*
X124613200Y-69140713D02*
X124565580Y-69188332D01*
X125563333Y-65223580D02*
X125515714Y-65271200D01*
X125515714Y-65271200D02*
X125372857Y-65318819D01*
X125372857Y-65318819D02*
X125277619Y-65318819D01*
X125277619Y-65318819D02*
X125134762Y-65271200D01*
X125134762Y-65271200D02*
X125039524Y-65175961D01*
X125039524Y-65175961D02*
X124991905Y-65080723D01*
X124991905Y-65080723D02*
X124944286Y-64890247D01*
X124944286Y-64890247D02*
X124944286Y-64747390D01*
X124944286Y-64747390D02*
X124991905Y-64556914D01*
X124991905Y-64556914D02*
X125039524Y-64461676D01*
X125039524Y-64461676D02*
X125134762Y-64366438D01*
X125134762Y-64366438D02*
X125277619Y-64318819D01*
X125277619Y-64318819D02*
X125372857Y-64318819D01*
X125372857Y-64318819D02*
X125515714Y-64366438D01*
X125515714Y-64366438D02*
X125563333Y-64414057D01*
X126515714Y-65318819D02*
X125944286Y-65318819D01*
X126230000Y-65318819D02*
X126230000Y-64318819D01*
X126230000Y-64318819D02*
X126134762Y-64461676D01*
X126134762Y-64461676D02*
X126039524Y-64556914D01*
X126039524Y-64556914D02*
X125944286Y-64604533D01*
X109624333Y-67924819D02*
X109291000Y-67448628D01*
X109052905Y-67924819D02*
X109052905Y-66924819D01*
X109052905Y-66924819D02*
X109433857Y-66924819D01*
X109433857Y-66924819D02*
X109529095Y-66972438D01*
X109529095Y-66972438D02*
X109576714Y-67020057D01*
X109576714Y-67020057D02*
X109624333Y-67115295D01*
X109624333Y-67115295D02*
X109624333Y-67258152D01*
X109624333Y-67258152D02*
X109576714Y-67353390D01*
X109576714Y-67353390D02*
X109529095Y-67401009D01*
X109529095Y-67401009D02*
X109433857Y-67448628D01*
X109433857Y-67448628D02*
X109052905Y-67448628D01*
X109957667Y-66924819D02*
X110576714Y-66924819D01*
X110576714Y-66924819D02*
X110243381Y-67305771D01*
X110243381Y-67305771D02*
X110386238Y-67305771D01*
X110386238Y-67305771D02*
X110481476Y-67353390D01*
X110481476Y-67353390D02*
X110529095Y-67401009D01*
X110529095Y-67401009D02*
X110576714Y-67496247D01*
X110576714Y-67496247D02*
X110576714Y-67734342D01*
X110576714Y-67734342D02*
X110529095Y-67829580D01*
X110529095Y-67829580D02*
X110481476Y-67877200D01*
X110481476Y-67877200D02*
X110386238Y-67924819D01*
X110386238Y-67924819D02*
X110100524Y-67924819D01*
X110100524Y-67924819D02*
X110005286Y-67877200D01*
X110005286Y-67877200D02*
X109957667Y-67829580D01*
D11*
%TO.C,R1*%
X114285500Y-62467258D02*
X114285500Y-61992742D01*
X115330500Y-62467258D02*
X115330500Y-61992742D01*
%TO.C,J1*%
X133350000Y-57150000D02*
X134620000Y-57150000D01*
X133350000Y-58420000D02*
X133350000Y-57150000D01*
X135662929Y-60580000D02*
X136117071Y-60580000D01*
X135662929Y-61340000D02*
X136117071Y-61340000D01*
X135662929Y-63120000D02*
X136117071Y-63120000D01*
X135662929Y-63880000D02*
X136117071Y-63880000D01*
X135662929Y-65660000D02*
X136117071Y-65660000D01*
X135662929Y-66420000D02*
X136117071Y-66420000D01*
X135662929Y-68200000D02*
X136117071Y-68200000D01*
X135662929Y-68960000D02*
X136117071Y-68960000D01*
X135662929Y-70740000D02*
X136117071Y-70740000D01*
X135662929Y-71500000D02*
X136117071Y-71500000D01*
X135730000Y-58040000D02*
X136117071Y-58040000D01*
X135730000Y-58800000D02*
X136117071Y-58800000D01*
X138202929Y-58040000D02*
X138600000Y-58040000D01*
X138202929Y-58800000D02*
X138600000Y-58800000D01*
X138202929Y-60580000D02*
X138600000Y-60580000D01*
X138202929Y-61340000D02*
X138600000Y-61340000D01*
X138202929Y-63120000D02*
X138600000Y-63120000D01*
X138202929Y-63880000D02*
X138600000Y-63880000D01*
X138202929Y-65660000D02*
X138600000Y-65660000D01*
X138202929Y-66420000D02*
X138600000Y-66420000D01*
X138202929Y-68200000D02*
X138600000Y-68200000D01*
X138202929Y-68960000D02*
X138600000Y-68960000D01*
X138202929Y-70740000D02*
X138600000Y-70740000D01*
X138202929Y-71500000D02*
X138600000Y-71500000D01*
X138600000Y-57090000D02*
X138600000Y-72450000D01*
X138600000Y-59690000D02*
X141260000Y-59690000D01*
X138600000Y-62230000D02*
X141260000Y-62230000D01*
X138600000Y-64770000D02*
X141260000Y-64770000D01*
X138600000Y-67310000D02*
X141260000Y-67310000D01*
X138600000Y-69850000D02*
X141260000Y-69850000D01*
X138600000Y-72450000D02*
X141260000Y-72450000D01*
X141260000Y-57090000D02*
X138600000Y-57090000D01*
X141260000Y-58040000D02*
X147260000Y-58040000D01*
X141260000Y-58100000D02*
X147260000Y-58100000D01*
X141260000Y-58220000D02*
X147260000Y-58220000D01*
X141260000Y-58340000D02*
X147260000Y-58340000D01*
X141260000Y-58460000D02*
X147260000Y-58460000D01*
X141260000Y-58580000D02*
X147260000Y-58580000D01*
X141260000Y-58700000D02*
X147260000Y-58700000D01*
X141260000Y-60580000D02*
X147260000Y-60580000D01*
X141260000Y-63120000D02*
X147260000Y-63120000D01*
X141260000Y-65660000D02*
X147260000Y-65660000D01*
X141260000Y-68200000D02*
X147260000Y-68200000D01*
X141260000Y-70740000D02*
X147260000Y-70740000D01*
X141260000Y-72450000D02*
X141260000Y-57090000D01*
X147260000Y-58040000D02*
X147260000Y-58800000D01*
X147260000Y-58800000D02*
X141260000Y-58800000D01*
X147260000Y-60580000D02*
X147260000Y-61340000D01*
X147260000Y-61340000D02*
X141260000Y-61340000D01*
X147260000Y-63120000D02*
X147260000Y-63880000D01*
X147260000Y-63880000D02*
X141260000Y-63880000D01*
X147260000Y-65660000D02*
X147260000Y-66420000D01*
X147260000Y-66420000D02*
X141260000Y-66420000D01*
X147260000Y-68200000D02*
X147260000Y-68960000D01*
X147260000Y-68960000D02*
X141260000Y-68960000D01*
X147260000Y-70740000D02*
X147260000Y-71500000D01*
X147260000Y-71500000D02*
X141260000Y-71500000D01*
%TO.C,R2*%
X109965258Y-71642500D02*
X109490742Y-71642500D01*
X109965258Y-70597500D02*
X109490742Y-70597500D01*
%TO.C,J3*%
X103184000Y-72196000D02*
X101854000Y-72196000D01*
X103184000Y-70866000D02*
X103184000Y-72196000D01*
X103184000Y-69596000D02*
X103184000Y-66996000D01*
X103184000Y-69596000D02*
X100524000Y-69596000D01*
X103184000Y-66996000D02*
X100524000Y-66996000D01*
X100524000Y-69596000D02*
X100524000Y-66996000D01*
%TO.C,C2*%
X124827420Y-59180000D02*
X125108580Y-59180000D01*
X124827420Y-60200000D02*
X125108580Y-60200000D01*
%TO.C,U1*%
X117590000Y-65590000D02*
X113940000Y-65590000D01*
X117590000Y-65590000D02*
X119790000Y-65590000D01*
X117590000Y-71110000D02*
X115390000Y-71110000D01*
X117590000Y-71110000D02*
X119790000Y-71110000D01*
%TO.C,J2*%
X100524000Y-57344000D02*
X101854000Y-57344000D01*
X100524000Y-58674000D02*
X100524000Y-57344000D01*
X100524000Y-59944000D02*
X100524000Y-62544000D01*
X100524000Y-59944000D02*
X103184000Y-59944000D01*
X100524000Y-62544000D02*
X103184000Y-62544000D01*
X103184000Y-59944000D02*
X103184000Y-62544000D01*
%TO.C,J4*%
X118881200Y-56099400D02*
X118881200Y-57429400D01*
X117551200Y-56099400D02*
X118881200Y-56099400D01*
X116281200Y-56099400D02*
X113681200Y-56099400D01*
X116281200Y-56099400D02*
X116281200Y-58759400D01*
X113681200Y-56099400D02*
X113681200Y-58759400D01*
X116281200Y-58759400D02*
X113681200Y-58759400D01*
%TO.C,C3*%
X126240000Y-68452420D02*
X126240000Y-68733580D01*
X125220000Y-68452420D02*
X125220000Y-68733580D01*
%TO.C,C1*%
X125589420Y-65784000D02*
X125870580Y-65784000D01*
X125589420Y-66804000D02*
X125870580Y-66804000D01*
%TO.C,R3*%
X110028258Y-66562500D02*
X109553742Y-66562500D01*
X110028258Y-65517500D02*
X109553742Y-65517500D01*
%TD*%
M02*
