%TF.GenerationSoftware,KiCad,Pcbnew,7.0.10*%
%TF.CreationDate,2024-02-14T05:56:45+09:00*%
%TF.ProjectId,drv8833,64727638-3833-4332-9e6b-696361645f70,rev?*%
%TF.SameCoordinates,Original*%
%TF.FileFunction,Soldermask,Top*%
%TF.FilePolarity,Negative*%
%FSLAX46Y46*%
G04 Gerber Fmt 4.6, Leading zero omitted, Abs format (unit mm)*
G04 Created by KiCad (PCBNEW 7.0.10) date 2024-02-14 05:56:45*
%MOMM*%
%LPD*%
G01*
G04 APERTURE LIST*
G04 Aperture macros list*
%AMRoundRect*
0 Rectangle with rounded corners*
0 $1 Rounding radius*
0 $2 $3 $4 $5 $6 $7 $8 $9 X,Y pos of 4 corners*
0 Add a 4 corners polygon primitive as box body*
4,1,4,$2,$3,$4,$5,$6,$7,$8,$9,$2,$3,0*
0 Add four circle primitives for the rounded corners*
1,1,$1+$1,$2,$3*
1,1,$1+$1,$4,$5*
1,1,$1+$1,$6,$7*
1,1,$1+$1,$8,$9*
0 Add four rect primitives between the rounded corners*
20,1,$1+$1,$2,$3,$4,$5,0*
20,1,$1+$1,$4,$5,$6,$7,0*
20,1,$1+$1,$6,$7,$8,$9,0*
20,1,$1+$1,$8,$9,$2,$3,0*%
G04 Aperture macros list end*
%ADD10RoundRect,0.200000X0.275000X-0.200000X0.275000X0.200000X-0.275000X0.200000X-0.275000X-0.200000X0*%
%ADD11R,1.700000X1.700000*%
%ADD12O,1.700000X1.700000*%
%ADD13RoundRect,0.200000X0.200000X0.275000X-0.200000X0.275000X-0.200000X-0.275000X0.200000X-0.275000X0*%
%ADD14RoundRect,0.225000X-0.225000X-0.250000X0.225000X-0.250000X0.225000X0.250000X-0.225000X0.250000X0*%
%ADD15R,2.460000X2.310000*%
%ADD16RoundRect,0.100000X-0.687500X-0.100000X0.687500X-0.100000X0.687500X0.100000X-0.687500X0.100000X0*%
%ADD17RoundRect,0.225000X-0.250000X0.225000X-0.250000X-0.225000X0.250000X-0.225000X0.250000X0.225000X0*%
G04 APERTURE END LIST*
D10*
%TO.C,R1*%
X114808000Y-63055000D03*
X114808000Y-61405000D03*
%TD*%
D11*
%TO.C,J1*%
X134620000Y-58420000D03*
D12*
X137160000Y-58420000D03*
X134620000Y-60960000D03*
X137160000Y-60960000D03*
X134620000Y-63500000D03*
X137160000Y-63500000D03*
X134620000Y-66040000D03*
X137160000Y-66040000D03*
X134620000Y-68580000D03*
X137160000Y-68580000D03*
X134620000Y-71120000D03*
X137160000Y-71120000D03*
%TD*%
D13*
%TO.C,R2*%
X110553000Y-71120000D03*
X108903000Y-71120000D03*
%TD*%
D11*
%TO.C,J3*%
X101854000Y-70866000D03*
D12*
X101854000Y-68326000D03*
%TD*%
D14*
%TO.C,C2*%
X124193000Y-59690000D03*
X125743000Y-59690000D03*
%TD*%
D15*
%TO.C,U1*%
X117590000Y-68350000D03*
D16*
X114727500Y-66075000D03*
X114727500Y-66725000D03*
X114727500Y-67375000D03*
X114727500Y-68025000D03*
X114727500Y-68675000D03*
X114727500Y-69325000D03*
X114727500Y-69975000D03*
X114727500Y-70625000D03*
X120452500Y-70625000D03*
X120452500Y-69975000D03*
X120452500Y-69325000D03*
X120452500Y-68675000D03*
X120452500Y-68025000D03*
X120452500Y-67375000D03*
X120452500Y-66725000D03*
X120452500Y-66075000D03*
%TD*%
D11*
%TO.C,J2*%
X101854000Y-58674000D03*
D12*
X101854000Y-61214000D03*
%TD*%
D11*
%TO.C,J4*%
X117551200Y-57429400D03*
D12*
X115011200Y-57429400D03*
%TD*%
D17*
%TO.C,C3*%
X125730000Y-67818000D03*
X125730000Y-69368000D03*
%TD*%
D14*
%TO.C,C1*%
X124955000Y-66294000D03*
X126505000Y-66294000D03*
%TD*%
D13*
%TO.C,R3*%
X110616000Y-66040000D03*
X108966000Y-66040000D03*
%TD*%
M02*
