M48
; DRILL file {KiCad 7.0.10} date Wed Feb 14 05:56:43 2024
; FORMAT={-:-/ absolute / inch / decimal}
; #@! TF.CreationDate,2024-02-14T05:56:43+09:00
; #@! TF.GenerationSoftware,Kicad,Pcbnew,7.0.10
; #@! TF.FileFunction,Plated,1,2,PTH
FMAT,2
INCH
; #@! TA.AperFunction,Plated,PTH,ComponentDrill
T1C0.0118
; #@! TA.AperFunction,Plated,PTH,ViaDrill
T2C0.0157
; #@! TA.AperFunction,Plated,PTH,ComponentDrill
T3C0.0394
%
G90
G05
T1
X4.6Y-2.6319
X4.6Y-2.6909
X4.6Y-2.75
X4.6591Y-2.6319
X4.6591Y-2.6909
X4.6591Y-2.75
T2
X4.25Y-2.6
X4.25Y-2.8
X4.51Y-2.54
X4.52Y-2.38
X4.83Y-2.5
X4.83Y-2.69
X4.87Y-2.5
X4.87Y-2.69
X5.04Y-2.35
X5.04Y-2.61
X5.19Y-2.4
T3
X4.01Y-2.31
X4.01Y-2.41
X4.01Y-2.69
X4.01Y-2.79
X4.528Y-2.261
X4.628Y-2.261
X5.3Y-2.3
X5.3Y-2.4
X5.3Y-2.5
X5.3Y-2.6
X5.3Y-2.7
X5.3Y-2.8
X5.4Y-2.3
X5.4Y-2.4
X5.4Y-2.5
X5.4Y-2.6
X5.4Y-2.7
X5.4Y-2.8
M30
